<svg width="168" height="38" viewBox="0 0 168 38" fill="none" xmlns="http://www.w3.org/2000/svg">
<path fill-rule="evenodd" clip-rule="evenodd" d="M16 35C24.8366 35 32 27.8366 32 19C32 10.1634 24.8366 3 16 3C7.16344 3 0 10.1634 0 19C0 27.8366 7.16344 35 16 35Z" fill="#ECD348"/>
<path d="M16.7383 15.4688V24H15.2676V15.4688H16.7383Z" fill="#181819" fill-opacity="0.9"/>
<path d="M46.8438 5.04688V15H45.1279V5.04688H46.8438ZM50.1463 9.18262V15H48.4988V7.60352H50.0506L50.1463 9.18262ZM49.8523 11.0283L49.3191 11.0215C49.3237 10.4974 49.3966 10.0166 49.5379 9.5791C49.6837 9.1416 49.8842 8.76562 50.1395 8.45117C50.3992 8.13672 50.7091 7.89518 51.0691 7.72656C51.4292 7.55339 51.8302 7.4668 52.2723 7.4668C52.6277 7.4668 52.949 7.51693 53.2361 7.61719C53.5278 7.71289 53.7762 7.87012 53.9813 8.08887C54.1909 8.30762 54.3504 8.59245 54.4598 8.94336C54.5691 9.28971 54.6238 9.71582 54.6238 10.2217V15H52.9695V10.2148C52.9695 9.85938 52.9171 9.5791 52.8123 9.37402C52.712 9.16439 52.5639 9.01628 52.368 8.92969C52.1766 8.83854 51.9373 8.79297 51.6502 8.79297C51.3676 8.79297 51.1147 8.85221 50.8914 8.9707C50.6681 9.08919 50.479 9.25098 50.324 9.45605C50.1736 9.66113 50.0574 9.89811 49.9754 10.167C49.8934 10.4359 49.8523 10.723 49.8523 11.0283ZM60.1549 12.9971C60.1549 12.833 60.1139 12.6849 60.0318 12.5527C59.9498 12.416 59.7926 12.293 59.5602 12.1836C59.3323 12.0742 58.9951 11.974 58.5484 11.8828C58.1565 11.7962 57.7965 11.6937 57.4684 11.5752C57.1448 11.4521 56.8668 11.304 56.6344 11.1309C56.402 10.9577 56.2219 10.7526 56.0943 10.5156C55.9667 10.2786 55.9029 10.0052 55.9029 9.69531C55.9029 9.39453 55.969 9.1097 56.1012 8.84082C56.2333 8.57194 56.4225 8.33496 56.6686 8.12988C56.9146 7.9248 57.2132 7.76302 57.5641 7.64453C57.9195 7.52604 58.316 7.4668 58.7535 7.4668C59.3733 7.4668 59.9042 7.57161 60.3463 7.78125C60.7929 7.98633 61.1347 8.2666 61.3717 8.62207C61.6087 8.97298 61.7271 9.36947 61.7271 9.81152H60.0797C60.0797 9.61556 60.0296 9.43327 59.9293 9.26465C59.8336 9.09147 59.6878 8.95247 59.4918 8.84766C59.2958 8.73828 59.0497 8.68359 58.7535 8.68359C58.471 8.68359 58.2363 8.72917 58.0494 8.82031C57.8671 8.9069 57.7304 9.02083 57.6393 9.16211C57.5527 9.30339 57.5094 9.45833 57.5094 9.62695C57.5094 9.75 57.5322 9.86165 57.5777 9.96191C57.6279 10.0576 57.7099 10.1465 57.8238 10.2285C57.9378 10.306 58.0927 10.3789 58.2887 10.4473C58.4892 10.5156 58.7398 10.5817 59.0406 10.6455C59.6057 10.764 60.0911 10.9167 60.4967 11.1035C60.9068 11.2858 61.2213 11.5228 61.44 11.8145C61.6588 12.1016 61.7682 12.4661 61.7682 12.9082C61.7682 13.2363 61.6975 13.5371 61.5562 13.8105C61.4195 14.0794 61.219 14.3141 60.9547 14.5146C60.6904 14.7106 60.3736 14.8633 60.0045 14.9727C59.6399 15.082 59.2298 15.1367 58.774 15.1367C58.1041 15.1367 57.5367 15.0182 57.0719 14.7812C56.607 14.5397 56.2538 14.2321 56.0123 13.8584C55.7753 13.4801 55.6568 13.0882 55.6568 12.6826H57.2496C57.2678 12.988 57.3521 13.2318 57.5025 13.4141C57.6575 13.5918 57.8489 13.7217 58.0768 13.8037C58.3092 13.8812 58.5484 13.9199 58.7945 13.9199C59.0908 13.9199 59.3391 13.8812 59.5396 13.8037C59.7402 13.7217 59.8928 13.6123 59.9977 13.4756C60.1025 13.3343 60.1549 13.1748 60.1549 12.9971ZM66.3012 7.60352V8.80664H62.1313V7.60352H66.3012ZM63.3344 5.79199H64.9818V12.9561C64.9818 13.1839 65.0137 13.3594 65.0775 13.4824C65.1459 13.6009 65.2393 13.6807 65.3578 13.7217C65.4763 13.7627 65.6153 13.7832 65.7748 13.7832C65.8887 13.7832 65.9981 13.7764 66.1029 13.7627C66.2077 13.749 66.2921 13.7354 66.3559 13.7217L66.3627 14.9795C66.226 15.0205 66.0665 15.057 65.8842 15.0889C65.7064 15.1208 65.5014 15.1367 65.2689 15.1367C64.8907 15.1367 64.5557 15.0706 64.2641 14.9385C63.9724 14.8018 63.7445 14.5807 63.5805 14.2754C63.4164 13.9701 63.3344 13.5645 63.3344 13.0586V5.79199ZM69.0363 7.60352V15H67.382V7.60352H69.0363ZM67.2727 5.66211C67.2727 5.41146 67.3547 5.2041 67.5187 5.04004C67.6874 4.87142 67.9198 4.78711 68.216 4.78711C68.5077 4.78711 68.7378 4.87142 68.9064 5.04004C69.0751 5.2041 69.1594 5.41146 69.1594 5.66211C69.1594 5.9082 69.0751 6.11328 68.9064 6.27734C68.7378 6.44141 68.5077 6.52344 68.216 6.52344C67.9198 6.52344 67.6874 6.44141 67.5187 6.27734C67.3547 6.11328 67.2727 5.9082 67.2727 5.66211ZM72.3047 4.5V15H70.6504V4.5H72.3047ZM75.573 4.5V15H73.9188V4.5H75.573Z" fill="white"/>
<path d="M44.4805 30.7832C44.4805 29.7988 44.7109 29.0137 45.1719 28.4277C45.6367 27.8379 46.252 27.543 47.0176 27.543C47.7402 27.543 48.3086 27.7949 48.7227 28.2988L48.7871 27.6602H50.0703V33.8066C50.0703 34.6387 49.8105 35.2949 49.291 35.7754C48.7754 36.2559 48.0781 36.4961 47.1992 36.4961C46.7344 36.4961 46.2793 36.3984 45.834 36.2031C45.3926 36.0117 45.0566 35.7598 44.8262 35.4473L45.5 34.5918C45.9375 35.1113 46.4766 35.3711 47.1172 35.3711C47.5898 35.3711 47.9629 35.2422 48.2363 34.9844C48.5098 34.7305 48.6465 34.3555 48.6465 33.8594V33.4316C48.2363 33.8887 47.6895 34.1172 47.0059 34.1172C46.2637 34.1172 45.6562 33.8223 45.1836 33.2324C44.7148 32.6426 44.4805 31.8262 44.4805 30.7832ZM45.8984 30.9062C45.8984 31.543 46.0273 32.0449 46.2852 32.4121C46.5469 32.7754 46.9082 32.957 47.3691 32.957C47.9434 32.957 48.3691 32.7109 48.6465 32.2188V29.4297C48.377 28.9492 47.9551 28.709 47.3809 28.709C46.9121 28.709 46.5469 28.8945 46.2852 29.2656C46.0273 29.6367 45.8984 30.1836 45.8984 30.9062ZM54.0301 34.1172C53.1277 34.1172 52.3953 33.834 51.8328 33.2676C51.2742 32.6973 50.9949 31.9395 50.9949 30.9941V30.8184C50.9949 30.1855 51.116 29.6211 51.3582 29.125C51.6043 28.625 51.948 28.2363 52.3895 27.959C52.8309 27.6816 53.323 27.543 53.866 27.543C54.7293 27.543 55.3953 27.8184 55.8641 28.3691C56.3367 28.9199 56.573 29.6992 56.573 30.707V31.2812H52.4305C52.4734 31.8047 52.6473 32.2188 52.952 32.5234C53.2605 32.8281 53.6473 32.9805 54.1121 32.9805C54.7645 32.9805 55.2957 32.7168 55.7059 32.1895L56.4734 32.9219C56.2195 33.3008 55.8797 33.5957 55.4539 33.8066C55.032 34.0137 54.5574 34.1172 54.0301 34.1172ZM53.8602 28.6855C53.4695 28.6855 53.1531 28.8223 52.9109 29.0957C52.6727 29.3691 52.5203 29.75 52.4539 30.2383H55.1668V30.1328C55.1355 29.6562 55.0086 29.2969 54.7859 29.0547C54.5633 28.8086 54.2547 28.6855 53.8602 28.6855ZM58.7047 27.6602L58.7457 28.3926C59.2145 27.8262 59.8297 27.543 60.5914 27.543C61.9117 27.543 62.5836 28.2988 62.607 29.8105V34H61.1832V29.8926C61.1832 29.4902 61.0953 29.1934 60.9195 29.002C60.7477 28.8066 60.4645 28.709 60.0699 28.709C59.4957 28.709 59.068 28.9688 58.7867 29.4883V34H57.3629V27.6602H58.7047ZM66.5551 34.1172C65.6527 34.1172 64.9203 33.834 64.3578 33.2676C63.7992 32.6973 63.5199 31.9395 63.5199 30.9941V30.8184C63.5199 30.1855 63.641 29.6211 63.8832 29.125C64.1293 28.625 64.473 28.2363 64.9145 27.959C65.3559 27.6816 65.848 27.543 66.391 27.543C67.2543 27.543 67.9203 27.8184 68.3891 28.3691C68.8617 28.9199 69.098 29.6992 69.098 30.707V31.2812H64.9555C64.9984 31.8047 65.1723 32.2188 65.477 32.5234C65.7855 32.8281 66.1723 32.9805 66.6371 32.9805C67.2895 32.9805 67.8207 32.7168 68.2309 32.1895L68.9984 32.9219C68.7445 33.3008 68.4047 33.5957 67.9789 33.8066C67.557 34.0137 67.0824 34.1172 66.5551 34.1172ZM66.3852 28.6855C65.9945 28.6855 65.6781 28.8223 65.4359 29.0957C65.1977 29.3691 65.0453 29.75 64.9789 30.2383H67.6918V30.1328C67.6605 29.6562 67.5336 29.2969 67.3109 29.0547C67.0883 28.8086 66.7797 28.6855 66.3852 28.6855ZM73.2277 28.9609C73.0402 28.9297 72.8469 28.9141 72.6477 28.9141C71.9953 28.9141 71.5559 29.1641 71.3293 29.6641V34H69.9055V27.6602H71.2648L71.3 28.3691C71.6437 27.8184 72.1203 27.543 72.7297 27.543C72.9328 27.543 73.1008 27.5703 73.2336 27.625L73.2277 28.9609ZM77.4395 34C77.377 33.8789 77.3223 33.6816 77.2754 33.4082C76.8223 33.8809 76.2676 34.1172 75.6113 34.1172C74.9746 34.1172 74.4551 33.9355 74.0527 33.5723C73.6504 33.209 73.4492 32.7598 73.4492 32.2246C73.4492 31.5488 73.6992 31.0312 74.1992 30.6719C74.7031 30.3086 75.4219 30.127 76.3555 30.127H77.2285V29.7109C77.2285 29.3828 77.1367 29.1211 76.9531 28.9258C76.7695 28.7266 76.4902 28.627 76.1152 28.627C75.791 28.627 75.5254 28.709 75.3184 28.873C75.1113 29.0332 75.0078 29.2383 75.0078 29.4883H73.584C73.584 29.1406 73.6992 28.8164 73.9297 28.5156C74.1602 28.2109 74.4727 27.9727 74.8672 27.8008C75.2656 27.6289 75.709 27.543 76.1973 27.543C76.9395 27.543 77.5312 27.7305 77.9727 28.1055C78.4141 28.4766 78.6406 29 78.6523 29.6758V32.5352C78.6523 33.1055 78.7324 33.5605 78.8926 33.9004V34H77.4395ZM75.875 32.9746C76.1562 32.9746 76.4199 32.9062 76.666 32.7695C76.916 32.6328 77.1035 32.4492 77.2285 32.2188V31.0234H76.4609C75.9336 31.0234 75.5371 31.1152 75.2715 31.2988C75.0059 31.4824 74.873 31.7422 74.873 32.0781C74.873 32.3516 74.9629 32.5703 75.1426 32.7344C75.3262 32.8945 75.5703 32.9746 75.875 32.9746ZM81.3582 34H79.9344V25H81.3582V34ZM87.0863 26.1191V27.6602H88.2055V28.7148H87.0863V32.2539C87.0863 32.4961 87.1332 32.6719 87.227 32.7812C87.3246 32.8867 87.4965 32.9395 87.7426 32.9395C87.9066 32.9395 88.0727 32.9199 88.2406 32.8809V33.9824C87.9164 34.0723 87.6039 34.1172 87.3031 34.1172C86.2094 34.1172 85.6625 33.5137 85.6625 32.3066V28.7148H84.6195V27.6602H85.6625V26.1191H87.0863ZM91.7902 34.1172C90.8879 34.1172 90.1555 33.834 89.593 33.2676C89.0344 32.6973 88.7551 31.9395 88.7551 30.9941V30.8184C88.7551 30.1855 88.8762 29.6211 89.1184 29.125C89.3645 28.625 89.7082 28.2363 90.1496 27.959C90.591 27.6816 91.0832 27.543 91.6262 27.543C92.4895 27.543 93.1555 27.8184 93.6242 28.3691C94.0969 28.9199 94.3332 29.6992 94.3332 30.707V31.2812H90.1906C90.2336 31.8047 90.4074 32.2188 90.7121 32.5234C91.0207 32.8281 91.4074 32.9805 91.8723 32.9805C92.5246 32.9805 93.0559 32.7168 93.466 32.1895L94.2336 32.9219C93.9797 33.3008 93.6398 33.5957 93.2141 33.8066C92.7922 34.0137 92.3176 34.1172 91.7902 34.1172ZM91.6203 28.6855C91.2297 28.6855 90.9133 28.8223 90.6711 29.0957C90.4328 29.3691 90.2805 29.75 90.2141 30.2383H92.927V30.1328C92.8957 29.6562 92.7687 29.2969 92.5461 29.0547C92.3234 28.8086 92.0148 28.6855 91.6203 28.6855ZM98.9316 34C98.8691 33.8789 98.8145 33.6816 98.7676 33.4082C98.3145 33.8809 97.7598 34.1172 97.1035 34.1172C96.4668 34.1172 95.9473 33.9355 95.5449 33.5723C95.1426 33.209 94.9414 32.7598 94.9414 32.2246C94.9414 31.5488 95.1914 31.0312 95.6914 30.6719C96.1953 30.3086 96.9141 30.127 97.8477 30.127H98.7207V29.7109C98.7207 29.3828 98.6289 29.1211 98.4453 28.9258C98.2617 28.7266 97.9824 28.627 97.6074 28.627C97.2832 28.627 97.0176 28.709 96.8105 28.873C96.6035 29.0332 96.5 29.2383 96.5 29.4883H95.0762C95.0762 29.1406 95.1914 28.8164 95.4219 28.5156C95.6523 28.2109 95.9648 27.9727 96.3594 27.8008C96.7578 27.6289 97.2012 27.543 97.6895 27.543C98.4316 27.543 99.0234 27.7305 99.4648 28.1055C99.9062 28.4766 100.133 29 100.145 29.6758V32.5352C100.145 33.1055 100.225 33.5605 100.385 33.9004V34H98.9316ZM97.3672 32.9746C97.6484 32.9746 97.9121 32.9062 98.1582 32.7695C98.4082 32.6328 98.5957 32.4492 98.7207 32.2188V31.0234H97.9531C97.4258 31.0234 97.0293 31.1152 96.7637 31.2988C96.498 31.4824 96.3652 31.7422 96.3652 32.0781C96.3652 32.3516 96.4551 32.5703 96.6348 32.7344C96.8184 32.8945 97.0625 32.9746 97.3672 32.9746ZM102.675 27.6602L102.716 28.3223C103.161 27.8027 103.77 27.543 104.544 27.543C105.391 27.543 105.971 27.8672 106.284 28.5156C106.745 27.8672 107.393 27.543 108.229 27.543C108.929 27.543 109.448 27.7363 109.788 28.123C110.132 28.5098 110.307 29.0801 110.315 29.834V34H108.891V29.875C108.891 29.4727 108.804 29.1777 108.628 28.9902C108.452 28.8027 108.161 28.709 107.755 28.709C107.43 28.709 107.165 28.7969 106.958 28.9727C106.755 29.1445 106.612 29.3711 106.53 29.6523L106.536 34H105.112V29.8281C105.093 29.082 104.712 28.709 103.97 28.709C103.399 28.709 102.995 28.9414 102.757 29.4062V34H101.333V27.6602H102.675Z" fill="white" fill-opacity="0.42"/>
<g clip-path="url(#clip0_0_1)">
<path d="M152 14.3725L154.377 16.75L155.435 15.6925L152 12.25L148.557 15.6925L149.622 16.75L152 14.3725ZM152 23.6275L149.622 21.25L148.565 22.3075L152 25.75L155.442 22.3075L154.377 21.25L152 23.6275Z" fill="white"/>
</g>
<defs>
<clipPath id="clip0_0_1">
<rect width="18" height="18" fill="white" transform="translate(143 10)"/>
</clipPath>
</defs>
</svg>
