<svg width="83" height="28" viewBox="0 0 83 28" fill="none" xmlns="http://www.w3.org/2000/svg">
<path d="M5.3125 1.40625V27H0.900391V1.40625H5.3125ZM14.2762 12.041V27H10.0398V7.98047H14.0301L14.2762 12.041ZM13.5203 16.7871L12.1492 16.7695C12.1609 15.4219 12.3484 14.1855 12.7117 13.0605C13.0867 11.9355 13.6023 10.9688 14.2586 10.1602C14.9266 9.35156 15.7234 8.73047 16.6492 8.29688C17.575 7.85156 18.6062 7.62891 19.743 7.62891C20.657 7.62891 21.4832 7.75781 22.2215 8.01562C22.9715 8.26172 23.6102 8.66602 24.1375 9.22852C24.6766 9.79102 25.0867 10.5234 25.368 11.4258C25.6492 12.3164 25.7898 13.4121 25.7898 14.7129V27H21.5359V14.6953C21.5359 13.7812 21.4012 13.0605 21.1316 12.5332C20.8738 11.9941 20.493 11.6133 19.9891 11.3906C19.4969 11.1562 18.8816 11.0391 18.1434 11.0391C17.4168 11.0391 16.7664 11.1914 16.1922 11.4961C15.618 11.8008 15.1316 12.2168 14.7332 12.7441C14.3465 13.2715 14.0477 13.8809 13.8367 14.5723C13.6258 15.2637 13.5203 16.002 13.5203 16.7871ZM40.484 21.8496C40.484 21.4277 40.3785 21.0469 40.1676 20.707C39.9566 20.3555 39.5523 20.0391 38.9547 19.7578C38.3687 19.4766 37.5016 19.2188 36.3531 18.9844C35.3453 18.7617 34.4195 18.498 33.5758 18.1934C32.7437 17.877 32.0289 17.4961 31.4312 17.0508C30.8336 16.6055 30.3707 16.0781 30.0426 15.4688C29.7145 14.8594 29.5504 14.1562 29.5504 13.3594C29.5504 12.5859 29.7203 11.8535 30.0602 11.1621C30.4 10.4707 30.8863 9.86133 31.5191 9.33398C32.152 8.80664 32.9195 8.39062 33.8219 8.08594C34.7359 7.78125 35.7555 7.62891 36.8805 7.62891C38.4742 7.62891 39.8395 7.89844 40.9762 8.4375C42.1246 8.96484 43.0035 9.68555 43.6129 10.5996C44.2223 11.502 44.527 12.5215 44.527 13.6582H40.2906C40.2906 13.1543 40.1617 12.6855 39.9039 12.252C39.6578 11.8066 39.2828 11.4492 38.7789 11.1797C38.275 10.8984 37.6422 10.7578 36.8805 10.7578C36.1539 10.7578 35.5504 10.875 35.0699 11.1094C34.6012 11.332 34.2496 11.625 34.0152 11.9883C33.7926 12.3516 33.6812 12.75 33.6812 13.1836C33.6812 13.5 33.7398 13.7871 33.857 14.0449C33.9859 14.291 34.1969 14.5195 34.4898 14.7305C34.7828 14.9297 35.1812 15.1172 35.6852 15.293C36.2008 15.4688 36.8453 15.6387 37.6187 15.8027C39.0719 16.1074 40.3199 16.5 41.3629 16.9805C42.4176 17.4492 43.2262 18.0586 43.7887 18.8086C44.3512 19.5469 44.6324 20.4844 44.6324 21.6211C44.6324 22.4648 44.4508 23.2383 44.0875 23.9414C43.7359 24.6328 43.2203 25.2363 42.5406 25.752C41.8609 26.2559 41.0465 26.6484 40.0973 26.9297C39.1598 27.2109 38.1051 27.3516 36.9332 27.3516C35.2105 27.3516 33.7516 27.0469 32.5562 26.4375C31.3609 25.8164 30.4527 25.0254 29.8316 24.0645C29.2223 23.0918 28.9176 22.084 28.9176 21.041H33.0133C33.0602 21.8262 33.277 22.4531 33.6637 22.9219C34.0621 23.3789 34.5543 23.7129 35.1402 23.9238C35.7379 24.123 36.3531 24.2227 36.9859 24.2227C37.7477 24.2227 38.3863 24.123 38.902 23.9238C39.4176 23.7129 39.8102 23.4316 40.0797 23.0801C40.3492 22.7168 40.484 22.3066 40.484 21.8496ZM56.7602 7.98047V11.0742H46.0375V7.98047H56.7602ZM49.1312 3.32227H53.3676V21.7441C53.3676 22.3301 53.4496 22.7812 53.6137 23.0977C53.7895 23.4023 54.0297 23.6074 54.3344 23.7129C54.6391 23.8184 54.9965 23.8711 55.4066 23.8711C55.6996 23.8711 55.9809 23.8535 56.2504 23.8184C56.5199 23.7832 56.7367 23.748 56.9008 23.7129L56.9184 26.9473C56.5668 27.0527 56.1566 27.1465 55.6879 27.2285C55.2309 27.3105 54.7035 27.3516 54.1059 27.3516C53.1332 27.3516 52.2719 27.1816 51.5219 26.8418C50.7719 26.4902 50.1859 25.9219 49.7641 25.1367C49.3422 24.3516 49.1312 23.3086 49.1312 22.0078V3.32227ZM64.2648 7.98047V27H60.0109V7.98047H64.2648ZM59.7297 2.98828C59.7297 2.34375 59.9406 1.81055 60.3625 1.38867C60.7961 0.955078 61.3937 0.738281 62.1555 0.738281C62.9055 0.738281 63.4973 0.955078 63.9309 1.38867C64.3645 1.81055 64.5812 2.34375 64.5812 2.98828C64.5812 3.62109 64.3645 4.14844 63.9309 4.57031C63.4973 4.99219 62.9055 5.20312 62.1555 5.20312C61.3937 5.20312 60.7961 4.99219 60.3625 4.57031C59.9406 4.14844 59.7297 3.62109 59.7297 2.98828ZM73.1406 0V27H68.8867V0H73.1406ZM82.0164 0V27H77.7625V0H82.0164Z" fill="white"/>
</svg>
