<svg width="230" height="134" viewBox="0 0 230 134" fill="none" xmlns="http://www.w3.org/2000/svg">
<path d="M216.353 111C220.024 111 223.021 108.021 222.801 104.357C222.063 92.0516 219.28 79.9394 214.551 68.5221C208.972 55.055 200.796 42.8184 190.489 32.5111C180.182 22.2038 167.945 14.0276 154.478 8.44937C141.011 2.8711 126.577 -6.37169e-07 112 0C97.4233 6.37169e-07 82.9893 2.8711 69.5221 8.44937C56.055 14.0276 43.8184 22.2038 33.5111 32.5112C23.2038 42.8185 15.0276 55.055 9.44937 68.5221C4.72018 79.9394 1.93675 92.0516 1.19898 104.357C0.979256 108.021 3.97611 111 7.64732 111V111C11.3185 111 14.2711 108.02 14.5207 104.358C15.2401 93.7999 17.6711 83.4138 21.732 73.6098C26.6422 61.7556 33.8391 50.9847 42.9119 41.9119C51.9847 32.8391 62.7556 25.6422 74.6098 20.732C86.4639 15.8219 99.1691 13.2946 112 13.2946C124.831 13.2946 137.536 15.8219 149.39 20.732C161.244 25.6422 172.015 32.8391 181.088 41.9119C190.161 50.9847 197.358 61.7556 202.268 73.6098C206.329 83.4138 208.76 93.7999 209.479 104.358C209.729 108.02 212.681 111 216.353 111V111Z" fill="#EAEAFD"/>
<path d="M213.869 88.3695C217.453 87.5734 219.733 84.015 218.723 80.4852C211.854 56.4589 197.052 35.382 176.631 20.7566C154.403 4.83746 127.082 -2.31826 99.9044 0.660993C72.7269 3.64025 47.6049 16.5449 29.3538 36.9014C12.5859 55.6036 2.70119 79.3868 1.20042 104.33C0.979938 107.995 3.97611 110.975 7.64733 110.976V110.976C11.3185 110.977 14.2718 107.998 14.5221 104.335C16.0029 82.6687 24.6709 62.0399 39.2524 45.7763C55.3176 27.8579 77.4307 16.4989 101.353 13.8765C125.276 11.254 149.324 17.5527 168.89 31.5652C186.648 44.2836 199.58 62.5446 205.719 83.3758C206.757 86.8972 210.285 89.1657 213.869 88.3695V88.3695Z" fill="#4A4DE6"/>
<path d="M199 111C199 99.575 196.75 88.2619 192.378 77.7065C188.005 67.1512 181.597 57.5604 173.518 49.4817C165.44 41.403 155.849 34.9946 145.293 30.6225C134.738 26.2503 123.425 24 112 24C100.575 24 89.2619 26.2503 78.7065 30.6225C68.1512 34.9946 58.5604 41.403 50.4817 49.4817C42.403 57.5604 35.9946 67.1512 31.6225 77.7065C27.2503 88.2619 25 99.575 25 111" stroke="#4A4DE6" stroke-dasharray="2 10"/>
<path d="M82.0273 80.3438C82.0273 81.319 81.7767 82.1895 81.2754 82.9551C80.7741 83.7116 80.0905 84.3086 79.2246 84.7461C80.2637 85.2292 81.0612 85.89 81.6172 86.7285C82.1823 87.5671 82.4648 88.515 82.4648 89.5723C82.4648 91.3223 81.8724 92.7122 80.6875 93.7422C79.5026 94.763 77.9258 95.2734 75.957 95.2734C73.9792 95.2734 72.3932 94.7585 71.1992 93.7285C70.0143 92.6986 69.4219 91.3132 69.4219 89.5723C69.4219 88.5059 69.7044 87.5488 70.2695 86.7012C70.8346 85.8535 71.6276 85.2018 72.6484 84.7461C71.7917 84.3086 71.1126 83.7116 70.6113 82.9551C70.1191 82.1895 69.873 81.319 69.873 80.3438C69.873 78.6484 70.4199 77.304 71.5137 76.3105C72.6074 75.3171 74.084 74.8203 75.9434 74.8203C77.8118 74.8203 79.293 75.3171 80.3867 76.3105C81.4805 77.304 82.0273 78.6484 82.0273 80.3438ZM79.1426 89.4082C79.1426 88.4238 78.8464 87.6309 78.2539 87.0293C77.6706 86.4186 76.8958 86.1133 75.9297 86.1133C74.9635 86.1133 74.1888 86.4141 73.6055 87.0156C73.0312 87.6172 72.7441 88.4147 72.7441 89.4082C72.7441 90.3835 73.0267 91.1628 73.5918 91.7461C74.166 92.3294 74.9544 92.6211 75.957 92.6211C76.9596 92.6211 77.7389 92.3385 78.2949 91.7734C78.86 91.2083 79.1426 90.4199 79.1426 89.4082ZM78.7188 80.4668C78.7188 79.6009 78.4681 78.89 77.9668 78.334C77.4655 77.7689 76.791 77.4863 75.9434 77.4863C75.0957 77.4863 74.4258 77.7552 73.9336 78.293C73.4414 78.8216 73.1953 79.5462 73.1953 80.4668C73.1953 81.3783 73.4414 82.1029 73.9336 82.6406C74.4349 83.1784 75.1094 83.4473 75.957 83.4473C76.8047 83.4473 77.4746 83.1784 77.9668 82.6406C78.4681 82.1029 78.7188 81.3783 78.7188 80.4668ZM94.1242 86.6738C93.0122 87.8496 91.7134 88.4375 90.2277 88.4375C88.4777 88.4375 87.0832 87.8268 86.0441 86.6055C85.0051 85.375 84.4855 83.7617 84.4855 81.7656C84.4855 80.4531 84.7499 79.2637 85.2785 78.1973C85.8072 77.1309 86.5591 76.3014 87.5344 75.709C88.5096 75.1165 89.6398 74.8203 90.925 74.8203C92.9302 74.8203 94.5207 75.5677 95.6965 77.0625C96.8723 78.5573 97.4602 80.5579 97.4602 83.0645V83.9941C97.4602 87.5853 96.649 90.3242 95.0266 92.2109C93.4042 94.0977 90.9842 95.0547 87.7668 95.082H87.3703V92.334H87.8488C89.8085 92.3066 91.3124 91.8372 92.3605 90.9258C93.4087 90.0052 93.9966 88.5879 94.1242 86.6738ZM90.925 85.8398C91.5904 85.8398 92.2147 85.6484 92.798 85.2656C93.3814 84.8828 93.8326 84.3542 94.1516 83.6797V82.3809C94.1516 80.9134 93.8508 79.7331 93.2492 78.8398C92.6477 77.9466 91.8684 77.5 90.9113 77.5C89.9543 77.5 89.1887 77.8965 88.6145 78.6895C88.0493 79.4733 87.7668 80.4668 87.7668 81.6699C87.7668 82.9186 88.0539 83.9258 88.6281 84.6914C89.2023 85.457 89.968 85.8398 90.925 85.8398ZM102.202 91.5C102.821 91.5 103.3 91.6777 103.637 92.0332C103.974 92.3796 104.143 92.8171 104.143 93.3457C104.143 93.8652 103.974 94.2982 103.637 94.6445C103.3 94.9818 102.821 95.1504 102.202 95.1504C101.609 95.1504 101.14 94.9818 100.793 94.6445C100.447 94.3073 100.274 93.8743 100.274 93.3457C100.274 92.8171 100.442 92.3796 100.78 92.0332C101.117 91.6777 101.591 91.5 102.202 91.5ZM119.576 80.3438C119.576 81.319 119.325 82.1895 118.824 82.9551C118.323 83.7116 117.639 84.3086 116.773 84.7461C117.812 85.2292 118.61 85.89 119.166 86.7285C119.731 87.5671 120.013 88.515 120.013 89.5723C120.013 91.3223 119.421 92.7122 118.236 93.7422C117.051 94.763 115.474 95.2734 113.505 95.2734C111.528 95.2734 109.942 94.7585 108.748 93.7285C107.563 92.6986 106.97 91.3132 106.97 89.5723C106.97 88.5059 107.253 87.5488 107.818 86.7012C108.383 85.8535 109.176 85.2018 110.197 84.7461C109.34 84.3086 108.661 83.7116 108.16 82.9551C107.668 82.1895 107.421 81.319 107.421 80.3438C107.421 78.6484 107.968 77.304 109.062 76.3105C110.156 75.3171 111.632 74.8203 113.492 74.8203C115.36 74.8203 116.841 75.3171 117.935 76.3105C119.029 77.304 119.576 78.6484 119.576 80.3438ZM116.691 89.4082C116.691 88.4238 116.395 87.6309 115.802 87.0293C115.219 86.4186 114.444 86.1133 113.478 86.1133C112.512 86.1133 111.737 86.4141 111.154 87.0156C110.58 87.6172 110.293 88.4147 110.293 89.4082C110.293 90.3835 110.575 91.1628 111.14 91.7461C111.714 92.3294 112.503 92.6211 113.505 92.6211C114.508 92.6211 115.287 92.3385 115.843 91.7734C116.408 91.2083 116.691 90.4199 116.691 89.4082ZM116.267 80.4668C116.267 79.6009 116.017 78.89 115.515 78.334C115.014 77.7689 114.339 77.4863 113.492 77.4863C112.644 77.4863 111.974 77.7552 111.482 78.293C110.99 78.8216 110.744 79.5462 110.744 80.4668C110.744 81.3783 110.99 82.1029 111.482 82.6406C111.983 83.1784 112.658 83.4473 113.505 83.4473C114.353 83.4473 115.023 83.1784 115.515 82.6406C116.017 82.1029 116.267 81.3783 116.267 80.4668ZM135.501 76.9395L127.544 95H124.057L132.001 77.7598H121.706V75.0938H135.501V76.9395ZM137.33 78.9219C137.33 77.7188 137.717 76.7344 138.492 75.9688C139.267 75.194 140.283 74.8066 141.541 74.8066C142.817 74.8066 143.838 75.194 144.604 75.9688C145.378 76.7344 145.766 77.7415 145.766 78.9902V79.9746C145.766 81.1686 145.378 82.1484 144.604 82.9141C143.838 83.6797 142.826 84.0625 141.568 84.0625C140.338 84.0625 139.322 83.6888 138.52 82.9414C137.727 82.1849 137.33 81.1686 137.33 79.8926V78.9219ZM139.654 79.9746C139.654 80.6035 139.827 81.1139 140.174 81.5059C140.529 81.8887 140.994 82.0801 141.568 82.0801C142.133 82.0801 142.589 81.8887 142.936 81.5059C143.282 81.1139 143.455 80.5853 143.455 79.9199V78.9219C143.455 78.293 143.277 77.7826 142.922 77.3906C142.576 76.9987 142.115 76.8027 141.541 76.8027C140.967 76.8027 140.507 77.0033 140.16 77.4043C139.823 77.7962 139.654 78.3158 139.654 78.9629V79.9746ZM146.9 90.1191C146.9 88.8978 147.297 87.9089 148.09 87.1523C148.883 86.3958 149.895 86.0176 151.125 86.0176C152.365 86.0176 153.376 86.3958 154.16 87.1523C154.953 87.9089 155.35 88.9297 155.35 90.2148V91.1855C155.35 92.3704 154.967 93.3503 154.201 94.125C153.445 94.8906 152.428 95.2734 151.152 95.2734C149.876 95.2734 148.846 94.8952 148.062 94.1387C147.288 93.373 146.9 92.3659 146.9 91.1172V90.1191ZM149.225 91.1855C149.225 91.8053 149.402 92.3158 149.758 92.7168C150.122 93.1087 150.587 93.3047 151.152 93.3047C151.736 93.3047 152.191 93.1178 152.52 92.7441C152.857 92.3613 153.025 91.8281 153.025 91.1445V90.1191C153.025 89.4811 152.848 88.9707 152.492 88.5879C152.137 88.2051 151.681 88.0137 151.125 88.0137C150.56 88.0137 150.1 88.2051 149.744 88.5879C149.398 88.9707 149.225 89.4993 149.225 90.1738V91.1855ZM142.252 93.5098L140.543 92.5254L150.264 76.9668L151.973 77.9512L142.252 93.5098Z" fill="#4A4DE6"/>
<path d="M77.9902 117V108.469H80.7793C81.7051 108.469 82.4004 108.66 82.8652 109.043C83.334 109.426 83.5684 109.992 83.5684 110.742C83.5684 111.141 83.4551 111.494 83.2285 111.803C83.002 112.107 82.6934 112.344 82.3027 112.512C82.7637 112.641 83.127 112.887 83.3926 113.25C83.6621 113.609 83.7969 114.039 83.7969 114.539C83.7969 115.305 83.5488 115.906 83.0527 116.344C82.5566 116.781 81.8555 117 80.9492 117H77.9902ZM79.1152 113.01V116.08H80.9727C81.4961 116.08 81.9082 115.945 82.209 115.676C82.5137 115.402 82.666 115.027 82.666 114.551C82.666 113.523 82.1074 113.01 80.9902 113.01H79.1152ZM79.1152 112.107H80.8145C81.3066 112.107 81.6992 111.984 81.9922 111.738C82.2891 111.492 82.4375 111.158 82.4375 110.736C82.4375 110.268 82.3008 109.928 82.0273 109.717C81.7539 109.502 81.3379 109.395 80.7793 109.395H79.1152V112.107ZM88.7109 117C88.6484 116.875 88.5977 116.652 88.5586 116.332C88.0547 116.855 87.4531 117.117 86.7539 117.117C86.1289 117.117 85.6152 116.941 85.2129 116.59C84.8145 116.234 84.6152 115.785 84.6152 115.242C84.6152 114.582 84.8652 114.07 85.3652 113.707C85.8691 113.34 86.5762 113.156 87.4863 113.156H88.541V112.658C88.541 112.279 88.4277 111.979 88.2012 111.756C87.9746 111.529 87.6406 111.416 87.1992 111.416C86.8125 111.416 86.4883 111.514 86.2266 111.709C85.9648 111.904 85.834 112.141 85.834 112.418H84.7441C84.7441 112.102 84.8555 111.797 85.0781 111.504C85.3047 111.207 85.6094 110.973 85.9922 110.801C86.3789 110.629 86.8027 110.543 87.2637 110.543C87.9941 110.543 88.5664 110.727 88.9805 111.094C89.3945 111.457 89.6094 111.959 89.625 112.6V115.518C89.625 116.1 89.6992 116.562 89.8477 116.906V117H88.7109ZM86.9121 116.174C87.252 116.174 87.5742 116.086 87.8789 115.91C88.1836 115.734 88.4043 115.506 88.541 115.225V113.924H87.6914C86.3633 113.924 85.6992 114.312 85.6992 115.09C85.6992 115.43 85.8125 115.695 86.0391 115.887C86.2656 116.078 86.5566 116.174 86.9121 116.174ZM94.5156 115.318C94.5156 115.025 94.4043 114.799 94.1816 114.639C93.9629 114.475 93.5781 114.334 93.0273 114.217C92.4805 114.1 92.0449 113.959 91.7207 113.795C91.4004 113.631 91.1621 113.436 91.0059 113.209C90.8535 112.982 90.7773 112.713 90.7773 112.4C90.7773 111.881 90.9961 111.441 91.4336 111.082C91.875 110.723 92.4375 110.543 93.1211 110.543C93.8398 110.543 94.4219 110.729 94.8672 111.1C95.3164 111.471 95.541 111.945 95.541 112.523H94.4512C94.4512 112.227 94.3242 111.971 94.0703 111.756C93.8203 111.541 93.5039 111.434 93.1211 111.434C92.7266 111.434 92.418 111.52 92.1953 111.691C91.9727 111.863 91.8613 112.088 91.8613 112.365C91.8613 112.627 91.9648 112.824 92.1719 112.957C92.3789 113.09 92.752 113.217 93.291 113.338C93.834 113.459 94.2734 113.604 94.6094 113.771C94.9453 113.939 95.1934 114.143 95.3535 114.381C95.5176 114.615 95.5996 114.902 95.5996 115.242C95.5996 115.809 95.373 116.264 94.9199 116.607C94.4668 116.947 93.8789 117.117 93.1562 117.117C92.6484 117.117 92.1992 117.027 91.8086 116.848C91.418 116.668 91.1113 116.418 90.8887 116.098C90.6699 115.773 90.5605 115.424 90.5605 115.049H91.6445C91.6641 115.412 91.8086 115.701 92.0781 115.916C92.3516 116.127 92.7109 116.232 93.1562 116.232C93.5664 116.232 93.8945 116.15 94.1406 115.986C94.3906 115.818 94.5156 115.596 94.5156 115.318ZM99.1426 117.117C98.2832 117.117 97.584 116.836 97.0449 116.273C96.5059 115.707 96.2363 114.951 96.2363 114.006V113.807C96.2363 113.178 96.3555 112.617 96.5938 112.125C96.8359 111.629 97.1719 111.242 97.6016 110.965C98.0352 110.684 98.5039 110.543 99.0078 110.543C99.832 110.543 100.473 110.814 100.93 111.357C101.387 111.9 101.615 112.678 101.615 113.689V114.141H97.3203C97.3359 114.766 97.5176 115.271 97.8652 115.658C98.2168 116.041 98.6621 116.232 99.2012 116.232C99.584 116.232 99.9082 116.154 100.174 115.998C100.439 115.842 100.672 115.635 100.871 115.377L101.533 115.893C101.002 116.709 100.205 117.117 99.1426 117.117ZM99.0078 111.434C98.5703 111.434 98.2031 111.594 97.9062 111.914C97.6094 112.23 97.4258 112.676 97.3555 113.25H100.531V113.168C100.5 112.617 100.352 112.191 100.086 111.891C99.8203 111.586 99.4609 111.434 99.0078 111.434ZM102.111 113.777C102.111 112.805 102.342 112.023 102.803 111.434C103.264 110.84 103.867 110.543 104.613 110.543C105.355 110.543 105.943 110.797 106.377 111.305V108H107.461V117H106.465L106.412 116.32C105.979 116.852 105.375 117.117 104.602 117.117C103.867 117.117 103.268 116.816 102.803 116.215C102.342 115.613 102.111 114.828 102.111 113.859V113.777ZM103.195 113.9C103.195 114.619 103.344 115.182 103.641 115.588C103.938 115.994 104.348 116.197 104.871 116.197C105.559 116.197 106.061 115.889 106.377 115.271V112.359C106.053 111.762 105.555 111.463 104.883 111.463C104.352 111.463 103.938 111.668 103.641 112.078C103.344 112.488 103.195 113.096 103.195 113.9ZM110.838 113.771C110.838 113.15 110.959 112.592 111.201 112.096C111.447 111.6 111.787 111.217 112.221 110.947C112.658 110.678 113.156 110.543 113.715 110.543C114.578 110.543 115.275 110.842 115.807 111.439C116.342 112.037 116.609 112.832 116.609 113.824V113.9C116.609 114.518 116.49 115.072 116.252 115.564C116.018 116.053 115.68 116.434 115.238 116.707C114.801 116.98 114.297 117.117 113.727 117.117C112.867 117.117 112.17 116.818 111.635 116.221C111.104 115.623 110.838 114.832 110.838 113.848V113.771ZM111.928 113.9C111.928 114.604 112.09 115.168 112.414 115.594C112.742 116.02 113.18 116.232 113.727 116.232C114.277 116.232 114.715 116.018 115.039 115.588C115.363 115.154 115.525 114.549 115.525 113.771C115.525 113.076 115.359 112.514 115.027 112.084C114.699 111.65 114.262 111.434 113.715 111.434C113.18 111.434 112.748 111.646 112.42 112.072C112.092 112.498 111.928 113.107 111.928 113.9ZM118.494 110.66L118.529 111.457C119.014 110.848 119.646 110.543 120.428 110.543C121.768 110.543 122.443 111.299 122.455 112.811V117H121.371V112.805C121.367 112.348 121.262 112.01 121.055 111.791C120.852 111.572 120.533 111.463 120.1 111.463C119.748 111.463 119.439 111.557 119.174 111.744C118.908 111.932 118.701 112.178 118.553 112.482V117H117.469V110.66H118.494ZM127.244 117H126.16V108H127.244V117ZM129.662 117H128.578V110.66H129.662V117ZM128.49 108.979C128.49 108.803 128.543 108.654 128.648 108.533C128.758 108.412 128.918 108.352 129.129 108.352C129.34 108.352 129.5 108.412 129.609 108.533C129.719 108.654 129.773 108.803 129.773 108.979C129.773 109.154 129.719 109.301 129.609 109.418C129.5 109.535 129.34 109.594 129.129 109.594C128.918 109.594 128.758 109.535 128.648 109.418C128.543 109.301 128.49 109.154 128.49 108.979ZM132.672 114.064L131.992 114.773V117H130.908V108H131.992V113.443L132.572 112.746L134.547 110.66H135.865L133.398 113.309L136.152 117H134.881L132.672 114.064ZM138.998 117.117C138.139 117.117 137.439 116.836 136.9 116.273C136.361 115.707 136.092 114.951 136.092 114.006V113.807C136.092 113.178 136.211 112.617 136.449 112.125C136.691 111.629 137.027 111.242 137.457 110.965C137.891 110.684 138.359 110.543 138.863 110.543C139.688 110.543 140.328 110.814 140.785 111.357C141.242 111.9 141.471 112.678 141.471 113.689V114.141H137.176C137.191 114.766 137.373 115.271 137.721 115.658C138.072 116.041 138.518 116.232 139.057 116.232C139.439 116.232 139.764 116.154 140.029 115.998C140.295 115.842 140.527 115.635 140.727 115.377L141.389 115.893C140.857 116.709 140.061 117.117 138.998 117.117ZM138.863 111.434C138.426 111.434 138.059 111.594 137.762 111.914C137.465 112.23 137.281 112.676 137.211 113.25H140.387V113.168C140.355 112.617 140.207 112.191 139.941 111.891C139.676 111.586 139.316 111.434 138.863 111.434ZM145.922 115.318C145.922 115.025 145.811 114.799 145.588 114.639C145.369 114.475 144.984 114.334 144.434 114.217C143.887 114.1 143.451 113.959 143.127 113.795C142.807 113.631 142.568 113.436 142.412 113.209C142.26 112.982 142.184 112.713 142.184 112.4C142.184 111.881 142.402 111.441 142.84 111.082C143.281 110.723 143.844 110.543 144.527 110.543C145.246 110.543 145.828 110.729 146.273 111.1C146.723 111.471 146.947 111.945 146.947 112.523H145.857C145.857 112.227 145.73 111.971 145.477 111.756C145.227 111.541 144.91 111.434 144.527 111.434C144.133 111.434 143.824 111.52 143.602 111.691C143.379 111.863 143.268 112.088 143.268 112.365C143.268 112.627 143.371 112.824 143.578 112.957C143.785 113.09 144.158 113.217 144.697 113.338C145.24 113.459 145.68 113.604 146.016 113.771C146.352 113.939 146.6 114.143 146.76 114.381C146.924 114.615 147.006 114.902 147.006 115.242C147.006 115.809 146.779 116.264 146.326 116.607C145.873 116.947 145.285 117.117 144.562 117.117C144.055 117.117 143.605 117.027 143.215 116.848C142.824 116.668 142.518 116.418 142.295 116.098C142.076 115.773 141.967 115.424 141.967 115.049H143.051C143.07 115.412 143.215 115.701 143.484 115.916C143.758 116.127 144.117 116.232 144.562 116.232C144.973 116.232 145.301 116.15 145.547 115.986C145.797 115.818 145.922 115.596 145.922 115.318Z" fill="#181819" fill-opacity="0.42"/>
<path d="M6.05859 129.361C6.05859 130.631 5.8418 131.574 5.4082 132.191C4.97461 132.809 4.29688 133.117 3.375 133.117C2.46484 133.117 1.79102 132.816 1.35352 132.215C0.916016 131.609 0.689453 130.707 0.673828 129.508V128.061C0.673828 126.807 0.890625 125.875 1.32422 125.266C1.75781 124.656 2.4375 124.352 3.36328 124.352C4.28125 124.352 4.95703 124.646 5.39062 125.236C5.82422 125.822 6.04688 126.729 6.05859 127.955V129.361ZM4.97461 127.879C4.97461 126.961 4.8457 126.293 4.58789 125.875C4.33008 125.453 3.92188 125.242 3.36328 125.242C2.80859 125.242 2.4043 125.451 2.15039 125.869C1.89648 126.287 1.76562 126.93 1.75781 127.797V129.531C1.75781 130.453 1.89062 131.135 2.15625 131.576C2.42578 132.014 2.83203 132.232 3.375 132.232C3.91016 132.232 4.30664 132.025 4.56445 131.611C4.82617 131.197 4.96289 130.545 4.97461 129.654V127.879ZM6.85352 126.109C6.85352 125.598 7.01562 125.176 7.33984 124.844C7.66797 124.512 8.08789 124.346 8.59961 124.346C9.11914 124.346 9.53906 124.514 9.85938 124.85C10.1836 125.182 10.3457 125.613 10.3457 126.145V126.561C10.3457 127.076 10.1816 127.498 9.85352 127.826C9.5293 128.15 9.11523 128.312 8.61133 128.312C8.10352 128.312 7.68359 128.15 7.35156 127.826C7.01953 127.498 6.85352 127.062 6.85352 126.52V126.109ZM7.66211 126.561C7.66211 126.865 7.74805 127.117 7.91992 127.316C8.0918 127.512 8.32227 127.609 8.61133 127.609C8.88867 127.609 9.11133 127.514 9.2793 127.322C9.45117 127.131 9.53711 126.869 9.53711 126.537V126.109C9.53711 125.805 9.45312 125.553 9.28516 125.354C9.11719 125.154 8.88867 125.055 8.59961 125.055C8.31055 125.055 8.08203 125.154 7.91406 125.354C7.74609 125.553 7.66211 125.812 7.66211 126.133V126.561ZM11.0078 130.908C11.0078 130.396 11.1699 129.977 11.4941 129.648C11.8223 129.316 12.2422 129.15 12.7539 129.15C13.2656 129.15 13.6855 129.314 14.0137 129.643C14.3418 129.971 14.5059 130.406 14.5059 130.949V131.365C14.5059 131.877 14.3418 132.299 14.0137 132.631C13.6895 132.959 13.2734 133.123 12.7656 133.123C12.2578 133.123 11.8379 132.961 11.5059 132.637C11.1738 132.309 11.0078 131.873 11.0078 131.33V130.908ZM11.8164 131.365C11.8164 131.674 11.9023 131.928 12.0742 132.127C12.2461 132.322 12.4766 132.42 12.7656 132.42C13.0469 132.42 13.2715 132.324 13.4395 132.133C13.6074 131.938 13.6914 131.674 13.6914 131.342V130.908C13.6914 130.6 13.6055 130.348 13.4336 130.152C13.2656 129.957 13.0391 129.859 12.7539 129.859C12.4766 129.859 12.25 129.957 12.0742 130.152C11.9023 130.344 11.8164 130.604 11.8164 130.932V131.365ZM8.85742 132.355L8.24219 131.969L12.4082 125.301L13.0234 125.688L8.85742 132.355Z" fill="#181819" fill-opacity="0.42"/>
<path d="M207.271 133H206.182V125.775L203.996 126.578V125.594L207.102 124.428H207.271V133ZM215.297 129.361C215.297 130.631 215.08 131.574 214.646 132.191C214.213 132.809 213.535 133.117 212.613 133.117C211.703 133.117 211.029 132.816 210.592 132.215C210.154 131.609 209.928 130.707 209.912 129.508V128.061C209.912 126.807 210.129 125.875 210.562 125.266C210.996 124.656 211.676 124.352 212.602 124.352C213.52 124.352 214.195 124.646 214.629 125.236C215.062 125.822 215.285 126.729 215.297 127.955V129.361ZM214.213 127.879C214.213 126.961 214.084 126.293 213.826 125.875C213.568 125.453 213.16 125.242 212.602 125.242C212.047 125.242 211.643 125.451 211.389 125.869C211.135 126.287 211.004 126.93 210.996 127.797V129.531C210.996 130.453 211.129 131.135 211.395 131.576C211.664 132.014 212.07 132.232 212.613 132.232C213.148 132.232 213.545 132.025 213.803 131.611C214.064 131.197 214.201 130.545 214.213 129.654V127.879ZM221.535 129.361C221.535 130.631 221.318 131.574 220.885 132.191C220.451 132.809 219.773 133.117 218.852 133.117C217.941 133.117 217.268 132.816 216.83 132.215C216.393 131.609 216.166 130.707 216.15 129.508V128.061C216.15 126.807 216.367 125.875 216.801 125.266C217.234 124.656 217.914 124.352 218.84 124.352C219.758 124.352 220.434 124.646 220.867 125.236C221.301 125.822 221.523 126.729 221.535 127.955V129.361ZM220.451 127.879C220.451 126.961 220.322 126.293 220.064 125.875C219.807 125.453 219.398 125.242 218.84 125.242C218.285 125.242 217.881 125.451 217.627 125.869C217.373 126.287 217.242 126.93 217.234 127.797V129.531C217.234 130.453 217.367 131.135 217.633 131.576C217.902 132.014 218.309 132.232 218.852 132.232C219.387 132.232 219.783 132.025 220.041 131.611C220.303 131.197 220.439 130.545 220.451 129.654V127.879ZM222.33 126.109C222.33 125.598 222.492 125.176 222.816 124.844C223.145 124.512 223.564 124.346 224.076 124.346C224.596 124.346 225.016 124.514 225.336 124.85C225.66 125.182 225.822 125.613 225.822 126.145V126.561C225.822 127.076 225.658 127.498 225.33 127.826C225.006 128.15 224.592 128.312 224.088 128.312C223.58 128.312 223.16 128.15 222.828 127.826C222.496 127.498 222.33 127.062 222.33 126.52V126.109ZM223.139 126.561C223.139 126.865 223.225 127.117 223.396 127.316C223.568 127.512 223.799 127.609 224.088 127.609C224.365 127.609 224.588 127.514 224.756 127.322C224.928 127.131 225.014 126.869 225.014 126.537V126.109C225.014 125.805 224.93 125.553 224.762 125.354C224.594 125.154 224.365 125.055 224.076 125.055C223.787 125.055 223.559 125.154 223.391 125.354C223.223 125.553 223.139 125.812 223.139 126.133V126.561ZM226.484 130.908C226.484 130.396 226.646 129.977 226.971 129.648C227.299 129.316 227.719 129.15 228.23 129.15C228.742 129.15 229.162 129.314 229.49 129.643C229.818 129.971 229.982 130.406 229.982 130.949V131.365C229.982 131.877 229.818 132.299 229.49 132.631C229.166 132.959 228.75 133.123 228.242 133.123C227.734 133.123 227.314 132.961 226.982 132.637C226.65 132.309 226.484 131.873 226.484 131.33V130.908ZM227.293 131.365C227.293 131.674 227.379 131.928 227.551 132.127C227.723 132.322 227.953 132.42 228.242 132.42C228.523 132.42 228.748 132.324 228.916 132.133C229.084 131.938 229.168 131.674 229.168 131.342V130.908C229.168 130.6 229.082 130.348 228.91 130.152C228.742 129.957 228.516 129.859 228.23 129.859C227.953 129.859 227.727 129.957 227.551 130.152C227.379 130.344 227.293 130.604 227.293 130.932V131.365ZM224.334 132.355L223.719 131.969L227.885 125.301L228.5 125.688L224.334 132.355Z" fill="#181819" fill-opacity="0.42"/>
</svg>
