<svg width="18" height="18" viewBox="0 0 18 18" fill="none" xmlns="http://www.w3.org/2000/svg">
<g clip-path="url(#clip0_1_65)">
<path d="M11.625 10.5H11.0325L10.8225 10.2975C11.7225 9.2475 12.1875 7.815 11.9325 6.2925C11.58 4.2075 9.84001 2.5425 7.74001 2.2875C4.56751 1.8975 1.89751 4.5675 2.28751 7.74C2.54251 9.84 4.20751 11.58 6.29251 11.9325C7.81501 12.1875 9.24751 11.7225 10.2975 10.8225L10.5 11.0325V11.625L13.6875 14.8125C13.995 15.12 14.4975 15.12 14.805 14.8125C15.1125 14.505 15.1125 14.0025 14.805 13.695L11.625 10.5ZM7.12501 10.5C5.25751 10.5 3.75001 8.9925 3.75001 7.125C3.75001 5.2575 5.25751 3.75 7.12501 3.75C8.99251 3.75 10.5 5.2575 10.5 7.125C10.5 8.9925 8.99251 10.5 7.12501 10.5Z" fill="#181819" fill-opacity="0.9"/>
</g>
<defs>
<clipPath id="clip0_1_65">
<rect width="18" height="18" fill="white"/>
</clipPath>
</defs>
</svg>
