<svg width="200" height="98" viewBox="0 0 200 98" fill="none" xmlns="http://www.w3.org/2000/svg">
<path d="M1 9C1 4.58172 4.58172 1 9 1H191C195.418 1 199 4.58172 199 9V89C199 93.4183 195.418 97 191 97H9C4.58172 97 1 93.4183 1 89V9Z" fill="#342BC2"/>
<path d="M142.755 25.4688V31.1699C142.755 32.0762 142.464 32.7949 141.882 33.3262C141.304 33.8535 140.532 34.1172 139.568 34.1172C138.591 34.1172 137.816 33.8574 137.241 33.3379C136.667 32.8145 136.38 32.0898 136.38 31.1641V25.4688H137.857V31.1758C137.857 31.7461 138.001 32.1816 138.29 32.4824C138.579 32.7832 139.005 32.9336 139.568 32.9336C140.708 32.9336 141.279 32.332 141.279 31.1289V25.4688H142.755ZM149.457 30.8945C149.457 31.875 149.234 32.6582 148.789 33.2441C148.344 33.8262 147.746 34.1172 146.996 34.1172C146.301 34.1172 145.744 33.8887 145.326 33.4316V36.4375H143.902V27.6602H145.215L145.273 28.3047C145.691 27.7969 146.26 27.543 146.979 27.543C147.752 27.543 148.357 27.832 148.795 28.4102C149.236 28.9844 149.457 29.7832 149.457 30.8066V30.8945ZM148.039 30.7715C148.039 30.1387 147.912 29.6367 147.658 29.2656C147.408 28.8945 147.049 28.709 146.58 28.709C145.998 28.709 145.58 28.9492 145.326 29.4297V32.2422C145.584 32.7344 146.006 32.9805 146.592 32.9805C147.045 32.9805 147.398 32.7988 147.652 32.4355C147.91 32.0684 148.039 31.5137 148.039 30.7715ZM150.118 30.7832C150.118 29.7988 150.348 29.0137 150.809 28.4277C151.274 27.8379 151.889 27.543 152.655 27.543C153.378 27.543 153.946 27.7949 154.36 28.2988L154.425 27.6602H155.708V33.8066C155.708 34.6387 155.448 35.2949 154.929 35.7754C154.413 36.2559 153.716 36.4961 152.837 36.4961C152.372 36.4961 151.917 36.3984 151.471 36.2031C151.03 36.0117 150.694 35.7598 150.464 35.4473L151.137 34.5918C151.575 35.1113 152.114 35.3711 152.755 35.3711C153.227 35.3711 153.6 35.2422 153.874 34.9844C154.147 34.7305 154.284 34.3555 154.284 33.8594V33.4316C153.874 33.8887 153.327 34.1172 152.643 34.1172C151.901 34.1172 151.294 33.8223 150.821 33.2324C150.352 32.6426 150.118 31.8262 150.118 30.7832ZM151.536 30.9062C151.536 31.543 151.665 32.0449 151.923 32.4121C152.184 32.7754 152.546 32.957 153.007 32.957C153.581 32.957 154.007 32.7109 154.284 32.2188V29.4297C154.014 28.9492 153.593 28.709 153.018 28.709C152.55 28.709 152.184 28.8945 151.923 29.2656C151.665 29.6367 151.536 30.1836 151.536 30.9062ZM160.195 28.9609C160.007 28.9297 159.814 28.9141 159.615 28.9141C158.962 28.9141 158.523 29.1641 158.296 29.6641V34H156.873V27.6602H158.232L158.267 28.3691C158.611 27.8184 159.087 27.543 159.697 27.543C159.9 27.543 160.068 27.5703 160.201 27.625L160.195 28.9609ZM164.407 34C164.344 33.8789 164.289 33.6816 164.243 33.4082C163.789 33.8809 163.235 34.1172 162.579 34.1172C161.942 34.1172 161.422 33.9355 161.02 33.5723C160.618 33.209 160.416 32.7598 160.416 32.2246C160.416 31.5488 160.666 31.0312 161.166 30.6719C161.67 30.3086 162.389 30.127 163.323 30.127H164.196V29.7109C164.196 29.3828 164.104 29.1211 163.92 28.9258C163.737 28.7266 163.457 28.627 163.082 28.627C162.758 28.627 162.493 28.709 162.286 28.873C162.079 29.0332 161.975 29.2383 161.975 29.4883H160.551C160.551 29.1406 160.666 28.8164 160.897 28.5156C161.127 28.2109 161.44 27.9727 161.834 27.8008C162.233 27.6289 162.676 27.543 163.164 27.543C163.907 27.543 164.498 27.7305 164.94 28.1055C165.381 28.4766 165.608 29 165.62 29.6758V32.5352C165.62 33.1055 165.7 33.5605 165.86 33.9004V34H164.407ZM162.842 32.9746C163.123 32.9746 163.387 32.9062 163.633 32.7695C163.883 32.6328 164.071 32.4492 164.196 32.2188V31.0234H163.428C162.901 31.0234 162.504 31.1152 162.239 31.2988C161.973 31.4824 161.84 31.7422 161.84 32.0781C161.84 32.3516 161.93 32.5703 162.11 32.7344C162.293 32.8945 162.537 32.9746 162.842 32.9746ZM166.544 30.7832C166.544 29.8066 166.771 29.0234 167.224 28.4336C167.677 27.8398 168.284 27.543 169.046 27.543C169.718 27.543 170.261 27.7773 170.675 28.2461V25H172.099V34H170.81L170.739 33.3438C170.314 33.8594 169.745 34.1172 169.034 34.1172C168.292 34.1172 167.691 33.8184 167.23 33.2207C166.773 32.623 166.544 31.8105 166.544 30.7832ZM167.968 30.9062C167.968 31.5508 168.091 32.0547 168.337 32.418C168.587 32.7773 168.941 32.957 169.398 32.957C169.98 32.957 170.405 32.6973 170.675 32.1777V29.4707C170.413 28.9629 169.991 28.709 169.409 28.709C168.948 28.709 168.593 28.8926 168.343 29.2598C168.093 29.623 167.968 30.1719 167.968 30.9062ZM176.076 34.1172C175.174 34.1172 174.441 33.834 173.879 33.2676C173.32 32.6973 173.041 31.9395 173.041 30.9941V30.8184C173.041 30.1855 173.162 29.6211 173.404 29.125C173.65 28.625 173.994 28.2363 174.436 27.959C174.877 27.6816 175.369 27.543 175.912 27.543C176.775 27.543 177.441 27.8184 177.91 28.3691C178.383 28.9199 178.619 29.6992 178.619 30.707V31.2812H174.477C174.52 31.8047 174.693 32.2188 174.998 32.5234C175.307 32.8281 175.693 32.9805 176.158 32.9805C176.811 32.9805 177.342 32.7168 177.752 32.1895L178.52 32.9219C178.266 33.3008 177.926 33.5957 177.5 33.8066C177.078 34.0137 176.604 34.1172 176.076 34.1172ZM175.906 28.6855C175.516 28.6855 175.199 28.8223 174.957 29.0957C174.719 29.3691 174.566 29.75 174.5 30.2383H177.213V30.1328C177.182 29.6562 177.055 29.2969 176.832 29.0547C176.609 28.8086 176.301 28.6855 175.906 28.6855Z" fill="#CACCF7"/>
<path d="M21 74H179V77H21V74Z" fill="#4544DA"/>
<rect x="21" y="74" width="15" height="3" fill="#CACCF7"/>
<path d="M27.2139 33.4365C27.2139 32.999 27.0589 32.6618 26.749 32.4248C26.4437 32.1878 25.89 31.9486 25.0879 31.707C24.2858 31.4655 23.6478 31.1966 23.1738 30.9004C22.2669 30.3307 21.8135 29.5879 21.8135 28.6719C21.8135 27.8698 22.1393 27.209 22.791 26.6895C23.4473 26.1699 24.2972 25.9102 25.3408 25.9102C26.0335 25.9102 26.651 26.0378 27.1934 26.293C27.7357 26.5482 28.1618 26.9128 28.4717 27.3867C28.7816 27.8561 28.9365 28.3779 28.9365 28.9521H27.2139C27.2139 28.4326 27.0498 28.027 26.7217 27.7354C26.3981 27.4391 25.9333 27.291 25.3271 27.291C24.762 27.291 24.3223 27.4118 24.0078 27.6533C23.6979 27.8949 23.543 28.2321 23.543 28.665C23.543 29.0296 23.7116 29.335 24.0488 29.5811C24.3861 29.8226 24.9421 30.0596 25.7168 30.292C26.4915 30.5199 27.1136 30.7819 27.583 31.0781C28.0524 31.3698 28.3965 31.707 28.6152 32.0898C28.834 32.4681 28.9434 32.9124 28.9434 33.4229C28.9434 34.2523 28.6243 34.9131 27.9863 35.4053C27.3529 35.8929 26.4915 36.1367 25.4023 36.1367C24.6823 36.1367 24.0192 36.0046 23.4131 35.7402C22.8115 35.4714 22.3421 35.1022 22.0049 34.6328C21.6722 34.1634 21.5059 33.6165 21.5059 32.9922H23.2354C23.2354 33.5573 23.4222 33.9948 23.7959 34.3047C24.1696 34.6146 24.7051 34.7695 25.4023 34.7695C26.0039 34.7695 26.4551 34.6488 26.7559 34.4072C27.0612 34.1611 27.2139 33.8376 27.2139 33.4365ZM32.0818 26.8057V28.6035H33.3875V29.834H32.0818V33.9629C32.0818 34.2454 32.1365 34.4505 32.2459 34.5781C32.3598 34.7012 32.5604 34.7627 32.8475 34.7627C33.0389 34.7627 33.2326 34.7399 33.4285 34.6943V35.9795C33.0503 36.0843 32.6857 36.1367 32.3348 36.1367C31.0587 36.1367 30.4207 35.4326 30.4207 34.0244V29.834H29.2039V28.6035H30.4207V26.8057H32.0818ZM33.8463 32.2334C33.8463 31.5088 33.9898 30.8571 34.277 30.2783C34.5641 29.695 34.9674 29.2484 35.4869 28.9385C36.0064 28.624 36.6035 28.4668 37.2779 28.4668C38.276 28.4668 39.0849 28.7881 39.7047 29.4307C40.329 30.0732 40.6663 30.9255 40.7164 31.9873L40.7232 32.377C40.7232 33.1061 40.582 33.7578 40.2994 34.332C40.0214 34.9062 39.6204 35.3506 39.0963 35.665C38.5768 35.9795 37.9752 36.1367 37.2916 36.1367C36.248 36.1367 35.4117 35.7904 34.7828 35.0977C34.1585 34.4004 33.8463 33.473 33.8463 32.3154V32.2334ZM35.5074 32.377C35.5074 33.138 35.6646 33.735 35.9791 34.168C36.2936 34.5964 36.7311 34.8105 37.2916 34.8105C37.8521 34.8105 38.2874 34.5918 38.5973 34.1543C38.9117 33.7168 39.0689 33.0765 39.0689 32.2334C39.0689 31.486 38.9072 30.8936 38.5836 30.4561C38.2646 30.0186 37.8294 29.7998 37.2779 29.7998C36.7356 29.7998 36.3049 30.0163 35.9859 30.4492C35.6669 30.8776 35.5074 31.5202 35.5074 32.377ZM45.7006 30.1211C45.4818 30.0846 45.2563 30.0664 45.0238 30.0664C44.2628 30.0664 43.7501 30.3581 43.4857 30.9414V36H41.8246V28.6035H43.4105L43.4516 29.4307C43.8526 28.7881 44.4086 28.4668 45.1195 28.4668C45.3565 28.4668 45.5525 28.4987 45.7074 28.5625L45.7006 30.1211ZM50.6643 36C50.5913 35.8587 50.5275 35.6286 50.4729 35.3096C49.9442 35.861 49.2971 36.1367 48.5314 36.1367C47.7886 36.1367 47.1825 35.9248 46.7131 35.501C46.2437 35.0771 46.009 34.5531 46.009 33.9287C46.009 33.1403 46.3007 32.5365 46.884 32.1172C47.4719 31.6934 48.3104 31.4814 49.3996 31.4814H50.4182V30.9961C50.4182 30.6133 50.3111 30.3079 50.0969 30.0801C49.8827 29.8477 49.5568 29.7314 49.1193 29.7314C48.7411 29.7314 48.4312 29.8271 48.1896 30.0186C47.9481 30.2054 47.8273 30.4447 47.8273 30.7363H46.1662C46.1662 30.3307 46.3007 29.9525 46.5695 29.6016C46.8384 29.2461 47.203 28.9681 47.6633 28.7676C48.1281 28.5671 48.6454 28.4668 49.215 28.4668C50.0809 28.4668 50.7714 28.6855 51.2863 29.123C51.8013 29.556 52.0656 30.1667 52.0793 30.9551V34.291C52.0793 34.9564 52.1727 35.4873 52.3596 35.8838V36H50.6643ZM48.8391 34.8037C49.1672 34.8037 49.4748 34.724 49.7619 34.5645C50.0536 34.4049 50.2723 34.1908 50.4182 33.9219V32.5273H49.5227C48.9074 32.5273 48.4449 32.6344 48.135 32.8486C47.8251 33.0628 47.6701 33.3659 47.6701 33.7578C47.6701 34.0768 47.7749 34.332 47.9846 34.5234C48.1988 34.7103 48.4836 34.8037 48.8391 34.8037ZM53.2285 32.2471C53.2285 31.0986 53.4974 30.1826 54.0352 29.499C54.5775 28.8109 55.2952 28.4668 56.1885 28.4668C57.0316 28.4668 57.6947 28.7607 58.1777 29.3486L58.2529 28.6035H59.75V35.7744C59.75 36.7451 59.4469 37.5107 58.8408 38.0713C58.2393 38.6318 57.4258 38.9121 56.4004 38.9121C55.8581 38.9121 55.3271 38.7982 54.8076 38.5703C54.2926 38.347 53.9007 38.0531 53.6318 37.6885L54.418 36.6904C54.9284 37.2965 55.5573 37.5996 56.3047 37.5996C56.8561 37.5996 57.2913 37.4492 57.6104 37.1484C57.9294 36.8522 58.0889 36.4147 58.0889 35.8359V35.3369C57.6104 35.8701 56.9723 36.1367 56.1748 36.1367C55.3089 36.1367 54.6003 35.7926 54.0488 35.1045C53.502 34.4163 53.2285 33.4639 53.2285 32.2471ZM54.8828 32.3906C54.8828 33.1335 55.0332 33.7191 55.334 34.1475C55.6393 34.5713 56.0609 34.7832 56.5986 34.7832C57.2686 34.7832 57.7653 34.4961 58.0889 33.9219V30.668C57.7744 30.1074 57.2822 29.8271 56.6123 29.8271C56.0654 29.8271 55.6393 30.0436 55.334 30.4766C55.0332 30.9095 54.8828 31.5475 54.8828 32.3906ZM64.4197 36.1367C63.367 36.1367 62.5125 35.8063 61.8563 35.1455C61.2046 34.4801 60.8787 33.596 60.8787 32.4932V32.2881C60.8787 31.5498 61.02 30.8913 61.3025 30.3125C61.5896 29.7292 61.9907 29.2757 62.5057 28.9521C63.0206 28.6286 63.5949 28.4668 64.2283 28.4668C65.2355 28.4668 66.0125 28.7881 66.5594 29.4307C67.1108 30.0732 67.3865 30.9824 67.3865 32.1582V32.8281H62.5535C62.6036 33.4388 62.8064 33.9219 63.1619 34.2773C63.5219 34.6328 63.9731 34.8105 64.5154 34.8105C65.2765 34.8105 65.8963 34.5029 66.3748 33.8877L67.2703 34.7422C66.9741 35.1842 66.5776 35.5283 66.0809 35.7744C65.5887 36.016 65.035 36.1367 64.4197 36.1367ZM64.2215 29.7998C63.7658 29.7998 63.3966 29.9593 63.1141 30.2783C62.8361 30.5973 62.6583 31.0417 62.5809 31.6113H65.7459V31.4883C65.7094 30.9323 65.5613 30.513 65.3016 30.2305C65.0418 29.9434 64.6818 29.7998 64.2215 29.7998Z" fill="white"/>
<path d="M23.2852 53.084H24.1523C24.5898 53.0801 24.9355 52.9668 25.1895 52.7441C25.4473 52.5215 25.5762 52.1992 25.5762 51.7773C25.5762 51.3711 25.4688 51.0566 25.2539 50.834C25.043 50.6074 24.7188 50.4941 24.2812 50.4941C23.8984 50.4941 23.584 50.6055 23.3379 50.8281C23.0918 51.0469 22.9688 51.334 22.9688 51.6895H21.5449C21.5449 51.252 21.6602 50.8535 21.8906 50.4941C22.125 50.1348 22.4492 49.8555 22.8633 49.6562C23.2812 49.4531 23.748 49.3516 24.2637 49.3516C25.1152 49.3516 25.7832 49.5664 26.2676 49.9961C26.7559 50.4219 27 51.0156 27 51.7773C27 52.1602 26.877 52.5215 26.6309 52.8613C26.3887 53.1973 26.0742 53.4512 25.6875 53.623C26.1562 53.7832 26.5117 54.0352 26.7539 54.3789C27 54.7227 27.123 55.1328 27.123 55.6094C27.123 56.375 26.8594 56.9844 26.332 57.4375C25.8086 57.8906 25.1191 58.1172 24.2637 58.1172C23.4434 58.1172 22.7715 57.8984 22.248 57.4609C21.7246 57.0234 21.4629 56.4414 21.4629 55.7148H22.8867C22.8867 56.0898 23.0117 56.3945 23.2617 56.6289C23.5156 56.8633 23.8555 56.9805 24.2812 56.9805C24.7227 56.9805 25.0703 56.8633 25.3242 56.6289C25.5781 56.3945 25.7051 56.0547 25.7051 55.6094C25.7051 55.1602 25.5723 54.8145 25.3066 54.5723C25.041 54.3301 24.6465 54.209 24.123 54.209H23.2852V53.084ZM29.1375 56.5C29.4031 56.5 29.6082 56.5762 29.7527 56.7285C29.8973 56.877 29.9695 57.0645 29.9695 57.291C29.9695 57.5137 29.8973 57.6992 29.7527 57.8477C29.6082 57.9922 29.4031 58.0645 29.1375 58.0645C28.8836 58.0645 28.6824 57.9922 28.534 57.8477C28.3855 57.7031 28.3113 57.5176 28.3113 57.291C28.3113 57.0645 28.3836 56.877 28.5281 56.7285C28.6727 56.5762 28.8758 56.5 29.1375 56.5ZM36.027 54.959H37.0875V56.1016H36.027V58H34.6031V56.1016H30.9176L30.8766 55.2344L34.5562 49.4688H36.027V54.959ZM32.3707 54.959H34.6031V51.3965L34.4977 51.584L32.3707 54.959ZM47.1867 56.8926C46.8781 57.2949 46.4504 57.5996 45.9035 57.8066C45.3566 58.0137 44.7355 58.1172 44.0402 58.1172C43.3254 58.1172 42.6926 57.9551 42.1418 57.6309C41.591 57.3066 41.1652 56.8438 40.8645 56.2422C40.5676 55.6367 40.4133 54.9316 40.4016 54.127V53.459C40.4016 52.1699 40.7102 51.1641 41.3273 50.4414C41.9445 49.7148 42.8059 49.3516 43.9113 49.3516C44.8605 49.3516 45.6145 49.5859 46.173 50.0547C46.7316 50.5234 47.0676 51.1992 47.1809 52.082H45.7277C45.5637 51.0547 44.968 50.541 43.9406 50.541C43.2766 50.541 42.7707 50.7812 42.423 51.2617C42.0793 51.7383 41.9016 52.4395 41.8898 53.3652V54.0215C41.8898 54.9434 42.0832 55.6602 42.4699 56.1719C42.8605 56.6797 43.4016 56.9336 44.093 56.9336C44.8508 56.9336 45.3898 56.7617 45.7102 56.418V54.748H43.9523V53.623H47.1867V56.8926ZM48.5156 58V49.4688H51.4395C52.4043 49.4688 53.1387 49.6621 53.6426 50.0488C54.1465 50.4355 54.3984 51.0117 54.3984 51.7773C54.3984 52.168 54.293 52.5195 54.082 52.832C53.8711 53.1445 53.5625 53.3867 53.1562 53.5586C53.6172 53.6836 53.9727 53.9199 54.2227 54.2676C54.4766 54.6113 54.6035 55.0254 54.6035 55.5098C54.6035 56.3105 54.3457 56.9258 53.8301 57.3555C53.3184 57.7852 52.584 58 51.627 58H48.5156ZM49.998 54.1504V56.8164H51.6445C52.1094 56.8164 52.4727 56.7012 52.7344 56.4707C52.9961 56.2402 53.127 55.9199 53.127 55.5098C53.127 54.623 52.6738 54.1699 51.7676 54.1504H49.998ZM49.998 53.0605H51.4512C51.9121 53.0605 52.2715 52.957 52.5293 52.75C52.791 52.5391 52.9219 52.2422 52.9219 51.8594C52.9219 51.4375 52.8008 51.1328 52.5586 50.9453C52.3203 50.7578 51.9473 50.6641 51.4395 50.6641H49.998V53.0605Z" fill="white"/>
<path d="M57.9285 54.7715C57.9285 54.1504 58.0496 53.5918 58.2918 53.0957C58.5379 52.5996 58.8777 52.2168 59.3113 51.9473C59.7488 51.6777 60.2469 51.543 60.8055 51.543C61.6688 51.543 62.366 51.8418 62.8973 52.4395C63.4324 53.0371 63.7 53.832 63.7 54.8242V54.9004C63.7 55.5176 63.5809 56.0723 63.3426 56.5645C63.1082 57.0527 62.7703 57.4336 62.3289 57.707C61.8914 57.9805 61.3875 58.1172 60.8172 58.1172C59.9578 58.1172 59.2605 57.8184 58.7254 57.2207C58.1941 56.623 57.9285 55.832 57.9285 54.8477V54.7715ZM59.0184 54.9004C59.0184 55.6035 59.1805 56.168 59.5047 56.5938C59.8328 57.0195 60.2703 57.2324 60.8172 57.2324C61.368 57.2324 61.8055 57.0176 62.1297 56.5879C62.4539 56.1543 62.616 55.5488 62.616 54.7715C62.616 54.0762 62.45 53.5137 62.118 53.084C61.7898 52.6504 61.3523 52.4336 60.8055 52.4336C60.2703 52.4336 59.8387 52.6465 59.5105 53.0723C59.1824 53.498 59.0184 54.1074 59.0184 54.9004ZM65.0926 58V52.498H64.0906V51.6602H65.0926V51.0098C65.0926 50.3301 65.2742 49.8047 65.6375 49.4336C66.0008 49.0625 66.5145 48.877 67.1785 48.877C67.4285 48.877 67.6766 48.9102 67.9227 48.9766L67.8641 49.8555C67.6805 49.8203 67.4852 49.8027 67.2781 49.8027C66.9266 49.8027 66.6551 49.9062 66.4637 50.1133C66.2723 50.3164 66.1766 50.6094 66.1766 50.9922V51.6602H67.5301V52.498H66.1766V58H65.0926ZM74.3816 58H72.9637V51.1504L70.8719 51.8652V50.6641L74.2 49.4395H74.3816V58ZM77.4273 53.7695L77.8902 49.4688H82.4723V50.6992H79.0738L78.8395 52.7383C79.234 52.5117 79.6793 52.3984 80.1754 52.3984C80.9879 52.3984 81.6188 52.6582 82.068 53.1777C82.5211 53.6973 82.7477 54.3965 82.7477 55.2754C82.7477 56.1426 82.4977 56.834 81.9977 57.3496C81.4977 57.8613 80.8121 58.1172 79.941 58.1172C79.1598 58.1172 78.5113 57.8965 77.9957 57.4551C77.484 57.0098 77.2066 56.4238 77.1637 55.6973H78.5406C78.5953 56.1113 78.7438 56.4297 78.9859 56.6523C79.2281 56.8711 79.5445 56.9805 79.9352 56.9805C80.3727 56.9805 80.7125 56.8242 80.9547 56.5117C81.2008 56.1992 81.3238 55.7734 81.3238 55.2344C81.3238 54.7148 81.1891 54.3047 80.9195 54.0039C80.65 53.6992 80.2789 53.5469 79.8063 53.5469C79.5484 53.5469 79.3297 53.582 79.15 53.6523C78.9703 53.7188 78.775 53.8516 78.5641 54.0508L77.4273 53.7695ZM93.0227 56.8926C92.7141 57.2949 92.2863 57.5996 91.7395 57.8066C91.1926 58.0137 90.5715 58.1172 89.8762 58.1172C89.1613 58.1172 88.5285 57.9551 87.9777 57.6309C87.427 57.3066 87.0012 56.8438 86.7004 56.2422C86.4035 55.6367 86.2492 54.9316 86.2375 54.127V53.459C86.2375 52.1699 86.5461 51.1641 87.1633 50.4414C87.7805 49.7148 88.6418 49.3516 89.7473 49.3516C90.6965 49.3516 91.4504 49.5859 92.009 50.0547C92.5676 50.5234 92.9035 51.1992 93.0168 52.082H91.5637C91.3996 51.0547 90.8039 50.541 89.7766 50.541C89.1125 50.541 88.6066 50.7812 88.259 51.2617C87.9152 51.7383 87.7375 52.4395 87.7258 53.3652V54.0215C87.7258 54.9434 87.9191 55.6602 88.3059 56.1719C88.6965 56.6797 89.2375 56.9336 89.9289 56.9336C90.6867 56.9336 91.2258 56.7617 91.5461 56.418V54.748H89.7883V53.623H93.0227V56.8926ZM94.3516 58V49.4688H97.2754C98.2402 49.4688 98.9746 49.6621 99.4785 50.0488C99.9824 50.4355 100.234 51.0117 100.234 51.7773C100.234 52.168 100.129 52.5195 99.918 52.832C99.707 53.1445 99.3984 53.3867 98.9922 53.5586C99.4531 53.6836 99.8086 53.9199 100.059 54.2676C100.312 54.6113 100.439 55.0254 100.439 55.5098C100.439 56.3105 100.182 56.9258 99.666 57.3555C99.1543 57.7852 98.4199 58 97.4629 58H94.3516ZM95.834 54.1504V56.8164H97.4805C97.9453 56.8164 98.3086 56.7012 98.5703 56.4707C98.832 56.2402 98.9629 55.9199 98.9629 55.5098C98.9629 54.623 98.5098 54.1699 97.6035 54.1504H95.834ZM95.834 53.0605H97.2871C97.748 53.0605 98.1074 52.957 98.3652 52.75C98.627 52.5391 98.7578 52.2422 98.7578 51.8594C98.7578 51.4375 98.6367 51.1328 98.3945 50.9453C98.1562 50.7578 97.7832 50.6641 97.2754 50.6641H95.834V53.0605Z" fill="white" fill-opacity="0.42"/>
</svg>
