<svg width="24" height="18" viewBox="0 0 24 18" fill="none" xmlns="http://www.w3.org/2000/svg">
<path d="M24 1C24 0.4475 23.5525 0 23 0H10V10H0V17C0 17.5525 0.4475 18 1 18H23C23.5525 18 24 17.5525 24 17V1Z" fill="#B41F30"/>
<path d="M24 2H10V4H24V2Z" fill="#E6E6E6"/>
<path d="M24 6H10V8H24V6Z" fill="#E6E6E6"/>
<path d="M0 10V12H24V10H10H0Z" fill="#E6E6E6"/>
<path d="M24 14H0V16H24V14Z" fill="#E6E6E6"/>
<path d="M10 10H0V1C0 0.4475 0.4475 0 1 0H10V10Z" fill="#00256A"/>
<path d="M4.99987 3.961L4.68337 4.645H3.93137L4.48137 5.215L4.27837 6.039L4.99987 5.63L5.72137 6.039L5.51837 5.215L6.06837 4.645H5.31537L4.99987 3.961Z" fill="white"/>
<path d="M2.55366 1.51448L2.23766 2.19848H1.48566L2.03516 2.76848L1.83216 3.59248L2.55366 3.18348L3.27566 3.59248L3.07216 2.76848L3.62216 2.19848H2.86916L2.55366 1.51448Z" fill="white"/>
<path d="M7.44658 1.51448L7.76258 2.19848H8.51458L7.96508 2.76848L8.16808 3.59248L7.44658 3.18348L6.72458 3.59248L6.92808 2.76848L6.37808 2.19848H7.13108L7.44658 1.51448Z" fill="white"/>
<path d="M2.55366 8.48553L2.23766 7.80153H1.48566L2.03516 7.23153L1.83216 6.40753L2.55366 6.81653L3.27566 6.40753L3.07216 7.23153L3.62216 7.80153H2.86916L2.55366 8.48553Z" fill="white"/>
<path d="M7.44658 8.48553L7.76258 7.80153H8.51458L7.96508 7.23153L8.16808 6.40753L7.44658 6.81653L6.72458 6.40753L6.92808 7.23153L6.37808 7.80153H7.13108L7.44658 8.48553Z" fill="white"/>
</svg>
