<svg width="680" height="223" viewBox="0 0 680 223" fill="none" xmlns="http://www.w3.org/2000/svg">
<path d="M3.6332 9H2.21523V2.15039L0.123438 2.86523V1.66406L3.45156 0.439453H3.6332V9ZM11.8586 5.4082C11.8586 6.63477 11.6281 7.56055 11.1672 8.18555C10.7102 8.80664 10.0129 9.11719 9.07539 9.11719C8.15352 9.11719 7.4582 8.81445 6.98945 8.20898C6.52461 7.59961 6.28633 6.69922 6.27461 5.50781V4.03125C6.27461 2.80469 6.50313 1.88477 6.96016 1.27148C7.42109 0.658203 8.12227 0.351562 9.06367 0.351562C9.99727 0.351562 10.6926 0.650391 11.1496 1.24805C11.6105 1.8457 11.8469 2.74023 11.8586 3.93164V5.4082ZM10.4348 3.81445C10.4348 3.01367 10.3254 2.42773 10.1066 2.05664C9.88789 1.68164 9.54023 1.49414 9.06367 1.49414C8.59883 1.49414 8.25703 1.67188 8.03828 2.02734C7.81953 2.37891 7.7043 2.92969 7.69258 3.67969V5.61328C7.69258 6.41016 7.80391 7.00391 8.02656 7.39453C8.24922 7.78516 8.59883 7.98047 9.07539 7.98047C9.53242 7.98047 9.87031 7.80078 10.0891 7.44141C10.3078 7.07812 10.423 6.51172 10.4348 5.74219V3.81445ZM18.3789 5.4082C18.3789 6.63477 18.1484 7.56055 17.6875 8.18555C17.2305 8.80664 16.5332 9.11719 15.5957 9.11719C14.6738 9.11719 13.9785 8.81445 13.5098 8.20898C13.0449 7.59961 12.8066 6.69922 12.7949 5.50781V4.03125C12.7949 2.80469 13.0234 1.88477 13.4805 1.27148C13.9414 0.658203 14.6426 0.351562 15.584 0.351562C16.5176 0.351562 17.2129 0.650391 17.6699 1.24805C18.1309 1.8457 18.3672 2.74023 18.3789 3.93164V5.4082ZM16.9551 3.81445C16.9551 3.01367 16.8457 2.42773 16.627 2.05664C16.4082 1.68164 16.0605 1.49414 15.584 1.49414C15.1191 1.49414 14.7773 1.67188 14.5586 2.02734C14.3398 2.37891 14.2246 2.92969 14.2129 3.67969V5.61328C14.2129 6.41016 14.3242 7.00391 14.5469 7.39453C14.7695 7.78516 15.1191 7.98047 15.5957 7.98047C16.0527 7.98047 16.3906 7.80078 16.6094 7.44141C16.8281 7.07812 16.9434 6.51172 16.9551 5.74219V3.81445Z" fill="#181819" fill-opacity="0.42"/>
<path d="M18.3789 200.408C18.3789 201.635 18.1484 202.561 17.6875 203.186C17.2305 203.807 16.5332 204.117 15.5957 204.117C14.6738 204.117 13.9785 203.814 13.5098 203.209C13.0449 202.6 12.8066 201.699 12.7949 200.508V199.031C12.7949 197.805 13.0234 196.885 13.4805 196.271C13.9414 195.658 14.6426 195.352 15.584 195.352C16.5176 195.352 17.2129 195.65 17.6699 196.248C18.1309 196.846 18.3672 197.74 18.3789 198.932V200.408ZM16.9551 198.814C16.9551 198.014 16.8457 197.428 16.627 197.057C16.4082 196.682 16.0605 196.494 15.584 196.494C15.1191 196.494 14.7773 196.672 14.5586 197.027C14.3398 197.379 14.2246 197.93 14.2129 198.68V200.613C14.2129 201.41 14.3242 202.004 14.5469 202.395C14.7695 202.785 15.1191 202.98 15.5957 202.98C16.0527 202.98 16.3906 202.801 16.6094 202.441C16.8281 202.078 16.9434 201.512 16.9551 200.742V198.814Z" fill="#181819" fill-opacity="0.42"/>
<path d="M12.0344 139H6.29805V138.021L9.13984 134.922C9.55 134.465 9.84102 134.084 10.0129 133.779C10.1887 133.471 10.2766 133.162 10.2766 132.854C10.2766 132.447 10.1613 132.119 9.93086 131.869C9.7043 131.619 9.39766 131.494 9.01094 131.494C8.55 131.494 8.19258 131.635 7.93867 131.916C7.68477 132.197 7.55781 132.582 7.55781 133.07H6.13398C6.13398 132.551 6.25117 132.084 6.48555 131.67C6.72383 131.252 7.06172 130.928 7.49922 130.697C7.94063 130.467 8.44844 130.352 9.02266 130.352C9.85078 130.352 10.5031 130.561 10.9797 130.979C11.4602 131.393 11.7004 131.967 11.7004 132.701C11.7004 133.127 11.5793 133.574 11.3371 134.043C11.0988 134.508 10.7063 135.037 10.1594 135.631L8.07344 137.863H12.0344V139ZM13.1992 134.77L13.6621 130.469H18.2441V131.699H14.8457L14.6113 133.738C15.0059 133.512 15.4512 133.398 15.9473 133.398C16.7598 133.398 17.3906 133.658 17.8398 134.178C18.293 134.697 18.5195 135.396 18.5195 136.275C18.5195 137.143 18.2695 137.834 17.7695 138.35C17.2695 138.861 16.584 139.117 15.7129 139.117C14.9316 139.117 14.2832 138.896 13.7676 138.455C13.2559 138.01 12.9785 137.424 12.9355 136.697H14.3125C14.3672 137.111 14.5156 137.43 14.7578 137.652C15 137.871 15.3164 137.98 15.707 137.98C16.1445 137.98 16.4844 137.824 16.7266 137.512C16.9727 137.199 17.0957 136.773 17.0957 136.234C17.0957 135.715 16.9609 135.305 16.6914 135.004C16.4219 134.699 16.0508 134.547 15.5781 134.547C15.3203 134.547 15.1016 134.582 14.9219 134.652C14.7422 134.719 14.5469 134.852 14.3359 135.051L13.1992 134.77Z" fill="#181819" fill-opacity="0.42"/>
<path d="M6.67891 69.7695L7.1418 65.4688H11.7238V66.6992H8.32539L8.09102 68.7383C8.48555 68.5117 8.93086 68.3984 9.42695 68.3984C10.2395 68.3984 10.8703 68.6582 11.3195 69.1777C11.7727 69.6973 11.9992 70.3965 11.9992 71.2754C11.9992 72.1426 11.7492 72.834 11.2492 73.3496C10.7492 73.8613 10.0637 74.1172 9.19258 74.1172C8.41133 74.1172 7.76289 73.8965 7.24727 73.4551C6.73555 73.0098 6.4582 72.4238 6.41523 71.6973H7.79219C7.84688 72.1113 7.99531 72.4297 8.2375 72.6523C8.47969 72.8711 8.79609 72.9805 9.18672 72.9805C9.62422 72.9805 9.96406 72.8242 10.2063 72.5117C10.4523 72.1992 10.5754 71.7734 10.5754 71.2344C10.5754 70.7148 10.4406 70.3047 10.1711 70.0039C9.90156 69.6992 9.53047 69.5469 9.05781 69.5469C8.8 69.5469 8.58125 69.582 8.40156 69.6523C8.22188 69.7188 8.02656 69.8516 7.81563 70.0508L6.67891 69.7695ZM18.3789 70.4082C18.3789 71.6348 18.1484 72.5605 17.6875 73.1855C17.2305 73.8066 16.5332 74.1172 15.5957 74.1172C14.6738 74.1172 13.9785 73.8145 13.5098 73.209C13.0449 72.5996 12.8066 71.6992 12.7949 70.5078V69.0312C12.7949 67.8047 13.0234 66.8848 13.4805 66.2715C13.9414 65.6582 14.6426 65.3516 15.584 65.3516C16.5176 65.3516 17.2129 65.6504 17.6699 66.248C18.1309 66.8457 18.3672 67.7402 18.3789 68.9316V70.4082ZM16.9551 68.8145C16.9551 68.0137 16.8457 67.4277 16.627 67.0566C16.4082 66.6816 16.0605 66.4941 15.584 66.4941C15.1191 66.4941 14.7773 66.6719 14.5586 67.0273C14.3398 67.3789 14.2246 67.9297 14.2129 68.6797V70.6133C14.2129 71.4102 14.3242 72.0039 14.5469 72.3945C14.7695 72.7852 15.1191 72.9805 15.5957 72.9805C16.0527 72.9805 16.3906 72.8008 16.6094 72.4414C16.8281 72.0781 16.9434 71.5117 16.9551 70.7422V68.8145Z" fill="#181819" fill-opacity="0.42"/>
<rect x="27.25" y="4.25" width="0.5" height="203.5" stroke="#E6E7E9" stroke-width="0.5" stroke-dasharray="4 4"/>
<rect x="678.25" y="4.25" width="0.5" height="203.5" stroke="#E6E7E9" stroke-width="0.5" stroke-dasharray="4 4"/>
<rect x="120" y="4" width="1" height="204" fill="#F0F1F2"/>
<rect x="213" y="4" width="1" height="204" fill="#F0F1F2"/>
<rect x="306" y="4" width="1" height="204" fill="#F0F1F2"/>
<rect x="399" y="4" width="1" height="204" fill="#F0F1F2"/>
<rect x="492" y="4" width="1" height="204" fill="#F0F1F2"/>
<rect x="585" y="4" width="1" height="204" fill="#F0F1F2"/>
<path d="M28 159.177C28 159.177 56.0944 127.886 73.6534 127.886C91.2124 127.886 102.626 138.316 120.624 138.316C138.622 138.316 149.157 122.671 166.716 122.671C184.275 122.671 195.688 148.747 213.686 148.747C231.684 148.747 242.22 167 259.779 167C277.338 167 288.751 114.848 306.749 114.848C324.747 114.848 335.283 146.139 352.842 146.139C370.401 146.139 381.814 130.494 399.812 130.494C417.81 130.494 429.223 161.785 446.782 161.785C464.341 161.785 475.316 109.633 492.875 109.633C510.434 109.633 522.286 133.101 539.845 133.101C557.404 133.101 568.378 101.81 585.937 101.81C603.496 101.81 615.349 130.494 632.908 130.494C650.467 130.494 679 64 679 64" stroke="#F0D961" stroke-width="2"/>
<path d="M28 126C28 126 56.0944 126 73.6534 126C91.2124 126 102.626 86 120.624 86C138.622 86 149.157 146 166.716 146C184.275 146 195.688 106 213.686 106C231.684 106 242.22 156 259.779 156C277.338 156 288.751 116 306.749 116C324.747 116 335.283 176 352.842 176C370.401 176 381.814 56 399.812 56C417.81 56 429.223 176 446.782 176C464.341 176 475.316 136 492.875 136C510.434 136 522.286 106 539.845 106C557.404 106 568.378 166 585.937 166C603.496 166 615.349 116 632.908 116C650.467 116 679 125 679 125" stroke="#4A4DE6" stroke-width="2"/>
<path d="M530.21 211.469L532.671 218.008L535.126 211.469H537.042V220H535.566V217.188L535.712 213.426L533.193 220H532.132L529.618 213.432L529.765 217.188V220H528.288V211.469H530.21ZM542.15 220C542.088 219.879 542.033 219.682 541.986 219.408C541.533 219.881 540.979 220.117 540.322 220.117C539.686 220.117 539.166 219.936 538.764 219.572C538.361 219.209 538.16 218.76 538.16 218.225C538.16 217.549 538.41 217.031 538.91 216.672C539.414 216.309 540.133 216.127 541.066 216.127H541.939V215.711C541.939 215.383 541.848 215.121 541.664 214.926C541.48 214.727 541.201 214.627 540.826 214.627C540.502 214.627 540.236 214.709 540.029 214.873C539.822 215.033 539.719 215.238 539.719 215.488H538.295C538.295 215.141 538.41 214.816 538.641 214.516C538.871 214.211 539.184 213.973 539.578 213.801C539.977 213.629 540.42 213.543 540.908 213.543C541.65 213.543 542.242 213.73 542.684 214.105C543.125 214.477 543.352 215 543.363 215.676V218.535C543.363 219.105 543.443 219.561 543.604 219.9V220H542.15ZM540.586 218.975C540.867 218.975 541.131 218.906 541.377 218.77C541.627 218.633 541.814 218.449 541.939 218.219V217.023H541.172C540.645 217.023 540.248 217.115 539.982 217.299C539.717 217.482 539.584 217.742 539.584 218.078C539.584 218.352 539.674 218.57 539.854 218.734C540.037 218.895 540.281 218.975 540.586 218.975ZM546.679 217.961L547.968 213.66H549.485L546.966 220.961C546.579 222.027 545.923 222.561 544.997 222.561C544.79 222.561 544.561 222.525 544.311 222.455V221.354L544.581 221.371C544.94 221.371 545.21 221.305 545.389 221.172C545.573 221.043 545.718 220.824 545.823 220.516L546.028 219.971L543.802 213.66H545.337L546.679 217.961Z" fill="#181819" fill-opacity="0.42"/>
<path d="M626.652 211.469H628.128V217.451C628.128 218.268 627.872 218.916 627.361 219.396C626.853 219.877 626.181 220.117 625.345 220.117C624.454 220.117 623.767 219.893 623.282 219.443C622.798 218.994 622.556 218.369 622.556 217.568H624.032C624.032 218.021 624.144 218.363 624.366 218.594C624.593 218.82 624.919 218.934 625.345 218.934C625.743 218.934 626.06 218.803 626.294 218.541C626.532 218.275 626.652 217.91 626.652 217.445V211.469ZM633.23 219.379C632.812 219.871 632.219 220.117 631.449 220.117C630.762 220.117 630.24 219.916 629.885 219.514C629.533 219.111 629.357 218.529 629.357 217.768V213.66H630.781V217.75C630.781 218.555 631.115 218.957 631.783 218.957C632.475 218.957 632.941 218.709 633.184 218.213V213.66H634.607V220H633.266L633.23 219.379ZM637.079 213.66L637.12 214.393C637.589 213.826 638.204 213.543 638.966 213.543C640.286 213.543 640.958 214.299 640.981 215.811V220H639.557V215.893C639.557 215.49 639.47 215.193 639.294 215.002C639.122 214.807 638.839 214.709 638.444 214.709C637.87 214.709 637.442 214.969 637.161 215.488V220H635.737V213.66H637.079Z" fill="#181819" fill-opacity="0.42"/>
<path d="M442.097 218.014H438.792L438.101 220H436.56L439.782 211.469H441.113L444.341 220H442.794L442.097 218.014ZM439.208 216.818H441.681L440.445 213.279L439.208 216.818ZM450.146 216.895C450.146 217.875 449.924 218.658 449.479 219.244C449.033 219.826 448.436 220.117 447.686 220.117C446.99 220.117 446.434 219.889 446.016 219.432V222.438H444.592V213.66H445.904L445.963 214.305C446.381 213.797 446.949 213.543 447.668 213.543C448.441 213.543 449.047 213.832 449.484 214.41C449.926 214.984 450.146 215.783 450.146 216.807V216.895ZM448.729 216.771C448.729 216.139 448.602 215.637 448.348 215.266C448.098 214.895 447.738 214.709 447.27 214.709C446.688 214.709 446.27 214.949 446.016 215.43V218.242C446.273 218.734 446.695 218.98 447.281 218.98C447.734 218.98 448.088 218.799 448.342 218.436C448.6 218.068 448.729 217.514 448.729 216.771ZM454.376 214.961C454.188 214.93 453.995 214.914 453.796 214.914C453.143 214.914 452.704 215.164 452.477 215.664V220H451.054V213.66H452.413L452.448 214.369C452.792 213.818 453.268 213.543 453.878 213.543C454.081 213.543 454.249 213.57 454.382 213.625L454.376 214.961Z" fill="#181819" fill-opacity="0.42"/>
<path d="M345.978 211.469L348.439 218.008L350.894 211.469H352.81V220H351.333V217.188L351.48 213.426L348.96 220H347.9L345.386 213.432L345.532 217.188V220H344.056V211.469H345.978ZM357.918 220C357.855 219.879 357.801 219.682 357.754 219.408C357.301 219.881 356.746 220.117 356.09 220.117C355.453 220.117 354.934 219.936 354.531 219.572C354.129 219.209 353.928 218.76 353.928 218.225C353.928 217.549 354.178 217.031 354.678 216.672C355.182 216.309 355.9 216.127 356.834 216.127H357.707V215.711C357.707 215.383 357.615 215.121 357.432 214.926C357.248 214.727 356.969 214.627 356.594 214.627C356.27 214.627 356.004 214.709 355.797 214.873C355.59 215.033 355.486 215.238 355.486 215.488H354.062C354.062 215.141 354.178 214.816 354.408 214.516C354.639 214.211 354.951 213.973 355.346 213.801C355.744 213.629 356.188 213.543 356.676 213.543C357.418 213.543 358.01 213.73 358.451 214.105C358.893 214.477 359.119 215 359.131 215.676V218.535C359.131 219.105 359.211 219.561 359.371 219.9V220H357.918ZM356.354 218.975C356.635 218.975 356.898 218.906 357.145 218.77C357.395 218.633 357.582 218.449 357.707 218.219V217.023H356.939C356.412 217.023 356.016 217.115 355.75 217.299C355.484 217.482 355.352 217.742 355.352 218.078C355.352 218.352 355.441 218.57 355.621 218.734C355.805 218.895 356.049 218.975 356.354 218.975ZM363.641 214.961C363.454 214.93 363.261 214.914 363.061 214.914C362.409 214.914 361.97 215.164 361.743 215.664V220H360.319V213.66H361.679L361.714 214.369C362.057 213.818 362.534 213.543 363.143 213.543C363.346 213.543 363.514 213.57 363.647 213.625L363.641 214.961Z" fill="#181819" fill-opacity="0.42"/>
<path d="M256.245 216.385H252.812V220H251.329V211.469H256.749V212.664H252.812V215.201H256.245V216.385ZM260.152 220.117C259.25 220.117 258.518 219.834 257.955 219.268C257.396 218.697 257.117 217.939 257.117 216.994V216.818C257.117 216.186 257.238 215.621 257.48 215.125C257.727 214.625 258.07 214.236 258.512 213.959C258.953 213.682 259.445 213.543 259.988 213.543C260.852 213.543 261.518 213.818 261.986 214.369C262.459 214.92 262.695 215.699 262.695 216.707V217.281H258.553C258.596 217.805 258.77 218.219 259.074 218.523C259.383 218.828 259.77 218.98 260.234 218.98C260.887 218.98 261.418 218.717 261.828 218.189L262.596 218.922C262.342 219.301 262.002 219.596 261.576 219.807C261.154 220.014 260.68 220.117 260.152 220.117ZM259.982 214.686C259.592 214.686 259.275 214.822 259.033 215.096C258.795 215.369 258.643 215.75 258.576 216.238H261.289V216.133C261.258 215.656 261.131 215.297 260.908 215.055C260.686 214.809 260.377 214.686 259.982 214.686ZM269.069 216.895C269.069 217.879 268.848 218.662 268.407 219.244C267.97 219.826 267.366 220.117 266.596 220.117C265.854 220.117 265.276 219.85 264.862 219.314L264.792 220H263.503V211H264.927V214.27C265.337 213.785 265.889 213.543 266.585 213.543C267.358 213.543 267.966 213.83 268.407 214.404C268.848 214.979 269.069 215.781 269.069 216.812V216.895ZM267.645 216.771C267.645 216.084 267.524 215.568 267.282 215.225C267.04 214.881 266.688 214.709 266.227 214.709C265.61 214.709 265.177 214.979 264.927 215.518V218.131C265.18 218.682 265.618 218.957 266.239 218.957C266.684 218.957 267.028 218.791 267.27 218.459C267.512 218.127 267.637 217.625 267.645 216.953V216.771Z" fill="#181819" fill-opacity="0.42"/>
<path d="M161.739 211.469H163.216V217.451C163.216 218.268 162.96 218.916 162.448 219.396C161.941 219.877 161.269 220.117 160.433 220.117C159.542 220.117 158.855 219.893 158.37 219.443C157.886 218.994 157.644 218.369 157.644 217.568H159.12C159.12 218.021 159.232 218.363 159.454 218.594C159.681 218.82 160.007 218.934 160.433 218.934C160.831 218.934 161.148 218.803 161.382 218.541C161.62 218.275 161.739 217.91 161.739 217.445V211.469ZM168.266 220C168.203 219.879 168.148 219.682 168.102 219.408C167.648 219.881 167.094 220.117 166.438 220.117C165.801 220.117 165.281 219.936 164.879 219.572C164.477 219.209 164.275 218.76 164.275 218.225C164.275 217.549 164.525 217.031 165.025 216.672C165.529 216.309 166.248 216.127 167.182 216.127H168.055V215.711C168.055 215.383 167.963 215.121 167.779 214.926C167.596 214.727 167.316 214.627 166.941 214.627C166.617 214.627 166.352 214.709 166.145 214.873C165.938 215.033 165.834 215.238 165.834 215.488H164.41C164.41 215.141 164.525 214.816 164.756 214.516C164.986 214.211 165.299 213.973 165.693 213.801C166.092 213.629 166.535 213.543 167.023 213.543C167.766 213.543 168.357 213.73 168.799 214.105C169.24 214.477 169.467 215 169.479 215.676V218.535C169.479 219.105 169.559 219.561 169.719 219.9V220H168.266ZM166.701 218.975C166.982 218.975 167.246 218.906 167.492 218.77C167.742 218.633 167.93 218.449 168.055 218.219V217.023H167.287C166.76 217.023 166.363 217.115 166.098 217.299C165.832 217.482 165.699 217.742 165.699 218.078C165.699 218.352 165.789 218.57 165.969 218.734C166.152 218.895 166.396 218.975 166.701 218.975ZM171.991 213.66L172.032 214.393C172.501 213.826 173.116 213.543 173.878 213.543C175.198 213.543 175.87 214.299 175.893 215.811V220H174.47V215.893C174.47 215.49 174.382 215.193 174.206 215.002C174.034 214.807 173.751 214.709 173.356 214.709C172.782 214.709 172.354 214.969 172.073 215.488V220H170.649V213.66H171.991Z" fill="#181819" fill-opacity="0.42"/>
<path d="M64.8672 220V211.469H67.3867C68.1406 211.469 68.8086 211.637 69.3906 211.973C69.9766 212.309 70.4297 212.785 70.75 213.402C71.0703 214.02 71.2305 214.727 71.2305 215.523V215.951C71.2305 216.76 71.0684 217.471 70.7441 218.084C70.4238 218.697 69.9648 219.17 69.3672 219.502C68.7734 219.834 68.0918 220 67.3223 220H64.8672ZM66.3496 212.664V218.816H67.3164C68.0938 218.816 68.6895 218.574 69.1035 218.09C69.5215 217.602 69.7344 216.902 69.7422 215.992V215.518C69.7422 214.592 69.541 213.885 69.1387 213.396C68.7363 212.908 68.1523 212.664 67.3867 212.664H66.3496ZM75.0613 220.117C74.159 220.117 73.4266 219.834 72.8641 219.268C72.3055 218.697 72.0262 217.939 72.0262 216.994V216.818C72.0262 216.186 72.1473 215.621 72.3895 215.125C72.6355 214.625 72.9793 214.236 73.4207 213.959C73.8621 213.682 74.3543 213.543 74.8973 213.543C75.7605 213.543 76.4266 213.818 76.8953 214.369C77.368 214.92 77.6043 215.699 77.6043 216.707V217.281H73.4617C73.5047 217.805 73.6785 218.219 73.9832 218.523C74.2918 218.828 74.6785 218.98 75.1434 218.98C75.7957 218.98 76.327 218.717 76.7371 218.189L77.5047 218.922C77.2508 219.301 76.9109 219.596 76.4852 219.807C76.0633 220.014 75.5887 220.117 75.0613 220.117ZM74.8914 214.686C74.5008 214.686 74.1844 214.822 73.9422 215.096C73.7039 215.369 73.5516 215.75 73.4852 216.238H76.198V216.133C76.1668 215.656 76.0398 215.297 75.8172 215.055C75.5945 214.809 75.2859 214.686 74.8914 214.686ZM81.0191 218.98C81.3746 218.98 81.6695 218.877 81.9039 218.67C82.1383 218.463 82.2633 218.207 82.2789 217.902H83.6207C83.6051 218.297 83.482 218.666 83.2516 219.01C83.0211 219.35 82.7086 219.619 82.3141 219.818C81.9195 220.018 81.4937 220.117 81.0367 220.117C80.15 220.117 79.4469 219.83 78.9273 219.256C78.4078 218.682 78.148 217.889 78.148 216.877V216.73C78.148 215.766 78.4059 214.994 78.9215 214.416C79.4371 213.834 80.1402 213.543 81.0309 213.543C81.7848 213.543 82.398 213.764 82.8707 214.205C83.3473 214.643 83.5973 215.219 83.6207 215.934H82.2789C82.2633 215.57 82.1383 215.271 81.9039 215.037C81.6734 214.803 81.3785 214.686 81.0191 214.686C80.5582 214.686 80.2027 214.854 79.9527 215.189C79.7027 215.521 79.5758 216.027 79.5719 216.707V216.936C79.5719 217.623 79.6949 218.137 79.941 218.477C80.191 218.812 80.5504 218.98 81.0191 218.98Z" fill="#181819" fill-opacity="0.42"/>
</svg>
